<svg version="1.0" xmlns="http://www.w3.org/2000/svg"
 width="40.000000pt" height="54.000000pt" viewBox="0 0 144.000000 108.000000"
 preserveAspectRatio="xMidYMid meet">
<g transform="translate(-60.000000,59.000000) scale(0.100000,-0.100000)"
fill="#ce1f20" stroke="none">
<path d="M1105 983 c-68 -15 -127 -39 -136 -55 -8 -14 6 -46 71 -158 68 -116
85 -140 105 -140 12 0 26 7 29 16 3 9 6 82 6 164 0 176 -5 189 -75 173z"/>
<path d="M1270 685 c-52 -77 -61 -109 -34 -119 19 -7 185 40 195 55 17 28 -58
139 -95 139 -8 0 -38 -34 -66 -75z"/>
<path d="M909 623 c-14 -38 -15 -121 -1 -135 14 -14 165 18 194 42 30 24 14
42 -67 83 -91 45 -112 46 -126 10z"/>
<path d="M1233 513 c-24 -9 -13 -46 33 -120 51 -83 70 -90 112 -45 41 44 58
80 46 99 -6 9 -40 27 -76 39 -91 31 -101 33 -115 27z"/>
<path d="M1072 429 c-92 -98 -92 -113 4 -149 86 -32 94 -23 94 99 0 96 -5 111
-36 111 -2 0 -30 -27 -62 -61z"/>
</g>


</svg>
