<svg xmlns="http://www.w3.org/2000/svg" version="1.0" width="144.000000pt" height="108.000000pt" viewBox="0 0 144.000000 108.000000" preserveAspectRatio="xMidYMid meet">
    <g transform="translate(0.000000,108.000000) scale(0.100000,-0.100000)" fill="#ce1f20" stroke="none">
        <path d="M1105 983c-68-15-127-39-136-55-8-14 6-46 71-158 68-116 85-140 105-140 12 0 26 7 29 16 3 9 6 82 6 164 0 176-5 189-75 173zM1270 685c-52-77-61-109-34-119 19-7 185 40 195 55 17 28-58 139-95 139-8 0-38-34-66-75zM909 623c-14-38-15-121-1-135 14-14 165 18 194 42 30 24 14 42-67 83-91 45-112 46-126 10zM284 611c-7-16-8-35-3-44 8-14 29-208 29-273 0-36-29-54-89-54-56 0-74 18-69 68 5 57-7 53-22-7-21-88 6-131 82-131 41 0 54 5 78 28 45 45 55 99 41 224-7 71-8 115-1 132 8 22 6 30-11 47-11 11-17 24-14 29 4 6 2 10-2 10-5 0-13-13-19-29zM597 607c-12-18-17-48-18-99-1-40-4-84-8-98-7-23-9-20-33 32-52 113-188 206-188 130 0-34 29-62 64-62 26 0 41-9 69-39 55-61 72-99 56-128-14-25-64-68-113-95l-31-17 30 0c46-1 112 34 134 70 11 17 23 54 26 80 7 51 25 58 25 11 0-40 19-99 36-117 26-25 97-19 164 15 33 16 75 30 94 30 26 0 35 5 40 23 9 35 8 36-31 43-21 3-57 17-80 30-51 29-67 30-93 4-30-30-26-51 9-44 29 6 71-9 71-25 0-14-59-31-106-31-63 0-73 20-87 181-12 131-12 132-30 106zM1233 513c-24-9-13-46 33-120 51-83 70-90 112-45 41 44 58 80 46 99-6 9-40 27-76 39-91 31-101 33-115 27zM1072 429c-92-98-92-113 4-149 86-32 94-23 94 99 0 96-5 111-36 111-2 0-30-27-62-61z" />
    </g>
    <g transform="translate(0.000000,108.000000) scale(0.100000,-0.100000)" fill="#000000" stroke="none">
        <path d="M284 611c-7-16-8-35-3-44 8-14 29-208 29-273 0-36-29-54-89-54-56 0-74 18-69 68 5 57-7 53-22-7-21-88 6-131 82-131 41 0 54 5 78 28 45 45 55 99 41 224-7 71-8 115-1 132 8 22 6 30-11 47-11 11-17 24-14 29 4 6 2 10-2 10-5 0-13-13-19-29zM597 607c-12-18-17-48-18-99-1-40-4-84-8-98-7-23-9-20-33 32-52 113-188 206-188 130 0-34 29-62 64-62 26 0 41-9 69-39 55-61 72-99 56-128-14-25-64-68-113-95l-31-17 30 0c46-1 112 34 134 70 11 17 23 54 26 80 7 51 25 58 25 11 0-40 19-99 36-117 26-25 97-19 164 15 33 16 75 30 94 30 26 0 35 5 40 23 9 35 8 36-31 43-21 3-57 17-80 30-51 29-67 30-93 4-30-30-26-51 9-44 29 6 71-9 71-25 0-14-59-31-106-31-63 0-73 20-87 181-12 131-12 132-30 106z" />
    </g>
</svg>
