<?xml version="1.0"?><svg width="640" height="480" xmlns="http://www.w3.org/2000/svg">
 <title>Mobile Food Truck</title>
 <defs>
  <symbol id="svg_2" viewBox="0 0 551.732 544.59" xmlns:xlink="http://www.w3.org/1999/xlink">
   <g id="svg_1">
    <g id="svg_4">
     <path id="svg_5" fill-rule="evenodd" clip-rule="evenodd" d="m342.71701,26.59c6.661011,3.808001 9.774994,25.764 1,30c-1.458008,-9.208 -3.490997,-17.841999 -6,-26c0.187988,-2.813 1.73999,-4.26 5,-4z"/>
     <path id="svg_6" fill-rule="evenodd" clip-rule="evenodd" d="m374.71701,46.59c2.940002,-9.060001 7.292999,-16.708 16,-20c-0.016998,7.440998 -9.78299,13.458 -13,21l-1.166992,-1.5l-1.833008,0.5z"/>
     <path id="svg_7" fill-rule="evenodd" clip-rule="evenodd" d="m371.884003,62.09l1.833008,-0.5c-2.499023,6.167004 -5.14801,12.185001 -10,15.999996c-5.524017,0.073006 -2.128998,-7.837997 -2,-11c-3.913025,-1.579994 -2.070007,2.596001 -4,3l-1.167023,-1.5l-1.832977,0.5c-1.417023,-3.206993 1.460999,-4.891994 2,-7.999996c1.597992,-9.202999 -2.992004,-21.803001 5,-26c4.140991,9.666 4.356995,20.365002 5,29c3.212982,0.880001 1.369995,-3.296001 4,-3l1.166992,1.5z"/>
     <path id="svg_8" fill-rule="evenodd" clip-rule="evenodd" d="m355.884003,70.089996l1.833008,-0.5c0.026978,3.360001 -1.377014,5.290001 -3,7c-5.176025,0.378006 -2.419006,-7.232994 0,-8l1.166992,1.5z"/>
     <path id="svg_9" fill-rule="evenodd" clip-rule="evenodd" d="m328.71701,70.589996c-10.57901,-10.753998 -23.731995,-18.933998 -30,-33.999996c0.677002,-2.323002 3.322998,-2.677002 4,-5c9.229004,7.438 17.251007,16.082001 23,27c2.671997,2.993999 5.819,5.513996 6,10.999996l-1.833008,-0.5l-1.166992,1.5z"/>
     <path id="svg_10" fill-rule="evenodd" clip-rule="evenodd" d="m277.71701,34.59c4.43399,-0.766998 3.158997,4.174 6,5c-6.325989,3.530998 -2.255005,14.965 -4,21c-9.209015,-3.608002 -3.641998,-20.943001 -2,-26z"/>
     <path id="svg_11" fill-rule="evenodd" clip-rule="evenodd" d="m446.71701,62.59c-9.446014,10.219997 -19.832001,19.501003 -26,32.999996c-4.777008,-0.222 -5.360992,-4.639 -12,-3c-1.59201,-13.445999 12.402008,-19.459 17,-29.999996c-6.787994,-1.771999 -10.571991,8.082996 -18,8.999996c-1.306,-8.971996 7.936005,-7.397995 9,-13.999996c10.363007,-0.306 19.752991,-13.006001 28,-6c0.408997,2.409 -1.825989,2.174 -1,5c-5.704987,1.960999 -10.032013,5.300999 -12,10.999996c6.093994,-1.239998 7.640015,-7.026997 14,-7.999996l-0.5,1.833l1.5,1.167z"/>
     <path id="svg_12" fill-rule="evenodd" clip-rule="evenodd" d="m453.71701,65.589996c6.699005,-7.836998 20.333008,-15.052998 29,-4.999996c-3.148987,8.851002 -16.796997,7.203999 -28,7.999996l0.5,-1.832993l-1.5,-1.167007z"/>
     <path id="svg_13" fill-rule="evenodd" clip-rule="evenodd" d="m302.71701,65.589996c2.544006,1.123001 4.877014,2.456001 7,4c0,2.333 0,4.667007 0,7c-6.428009,2.550003 -10.733002,-6.140999 -7,-11z"/>
     <path id="svg_14" fill-rule="evenodd" clip-rule="evenodd" d="m291.71701,80.589996c-3.190002,0.857002 -3.092987,-1.573997 -5,-2c1.126007,-3.873993 1.950012,-8.049995 4,-11c8.255981,-0.625999 4.873993,11.539001 1,13z"/>
     <path id="svg_15" fill-rule="evenodd" clip-rule="evenodd" d="m382.71701,68.589996c-2.717987,5.282005 -5.707001,10.292007 -12,12c-2.26001,-6.273994 4.911987,-15.168999 12,-12z"/>
     <path id="svg_16" fill-rule="evenodd" clip-rule="evenodd" d="m312.71701,71.589996c1,0 2,0 3,0c0,1 0,2 0,3c-1,0 -2,0 -3,0c0,-1 0,-2 0,-3z"/>
     <path id="svg_17" fill-rule="evenodd" clip-rule="evenodd" d="m346.71701,71.589996c1.312988,0.353004 1.572998,1.761002 3,2c-0.354004,1.313004 -1.760986,1.573006 -2,3c-1.312988,-0.353996 -1.572998,-1.760994 -3,-2c0.354004,-1.312996 1.760986,-1.571999 2,-3z"/>
     <path id="svg_18" fill-rule="evenodd" clip-rule="evenodd" d="m390.71701,81.589996c0.333008,0 0.666992,0 1,0c2.083984,-2.915993 3.346985,-6.653 6,-9c1.312988,0.354004 1.572998,1.761002 3,2c0.376007,6.042007 -1.209015,10.125 -4,13c-1.824005,-1.508995 -5.605011,-1.060997 -7,-3l1.5,-1.167l-0.5,-1.833z"/>
     <path id="svg_19" fill-rule="evenodd" clip-rule="evenodd" d="m460.71701,78.589996c2.061005,-3.549995 9.369995,-6.25 14,-4c-2.618011,4.049004 -7.252014,6.081001 -13,7l0.5,-1.832993l-1.5,-1.167007z"/>
     <path id="svg_20" fill-rule="evenodd" clip-rule="evenodd" d="m448.931,88.946999l1.786011,-0.357002c0.281982,1.615005 -0.945007,1.722 -1,3c11.048004,0.505005 45.800995,-13.977997 48,7c-12.487,2.179001 -23.58902,5.745003 -33,11c4.069977,4.440002 10.894989,0.512001 17,0c10.539001,-0.883995 23.514984,0.017006 33.999969,2c-2.365967,8.367004 4.876038,7.124001 8,10c-1.747009,4.253006 -8.339966,3.660004 -11.999969,6l-0.5,-1.5l-0.5,-1.5c0,-0.332993 0,-0.667 0,-1c-13.382019,-5.362999 -23.442017,5.807007 -34,1c2.898987,-6.766998 14.721985,-4.612 21,-8c-15.421021,-4.060997 -34.796021,1.320007 -51,2c-1.770996,-11.575996 15.994995,-10.996994 22,-18c-10.093018,-6.153 -26.811005,12.064003 -35,2c0.888,-7.778999 10.296997,-7.035995 11,-15c1,0 2,0 3,0l1.213989,1.357002z"/>
     <path id="svg_21" fill-rule="evenodd" clip-rule="evenodd" d="m475.21701,132.757004l0.5,1.832993c-4.791016,-0.209 -10.993988,0.99501 -13,-2c1.269012,-5.073997 10.789001,-2.720001 14,-1l-1.5,1.167007z"/>
     <path id="svg_22" fill-rule="evenodd" clip-rule="evenodd" d="m504.71701,131.589996c11.038971,-1.085999 23.923981,0.348999 19.999969,11c-5.21698,-1.450989 -26.911987,-0.276001 -19.999969,-11z"/>
     <path id="svg_23" fill-rule="evenodd" clip-rule="evenodd" d="m438.71701,146.589996c2.891998,0.44101 4.55899,2.108002 5,5c-3.141022,-0.190994 -4.808014,-1.858002 -5,-5z"/>
     <path id="svg_24" fill-rule="evenodd" clip-rule="evenodd" d="m452.71701,157.589996c3.190002,-0.856995 3.092987,1.574005 5,2c-0.431,3.397003 -6.522003,2.328003 -5,-2z"/>
     <path id="svg_25" fill-rule="evenodd" clip-rule="evenodd" d="m309.71701,165.589996c1.510986,-1.837997 6.747986,-2.957993 9,-1c-1.411987,2.587997 -3.230988,4.768997 -8,4l0.5,-1.832993l-1.5,-1.167007z"/>
     <path id="svg_26" fill-rule="evenodd" clip-rule="evenodd" d="m444.71701,173.589996c1,0 2,0 3,0c-0.593994,3.190002 1.877014,3.093002 0,5c-1,0 -2,0 -3,0c-0.700012,-3.078003 -0.700012,-1.921997 0,-5z"/>
     <path id="svg_27" fill-rule="evenodd" clip-rule="evenodd" d="m325.71701,185.589996c4.36499,0.697998 4.446014,-2.886993 8,-3c2.984009,0.016006 3.399994,2.600006 6,3c-1.071014,8.070999 7.032013,6.968002 6,15c-1.419006,-0.085999 -2.832001,-0.164993 -3,1c-2.714996,-1.285004 -5.028015,-2.972 -5,-7c-1.862,-0.138 -3.34201,-0.65799 -4,-2c-7.298004,0.036011 -13.239014,1.427002 -20,2c-6.636993,6.363007 -16.220001,9.779999 -25,14c-0.119995,-16.729996 21.376007,-21.455002 32,-28c3.820984,-0.485992 3.129974,3.537003 5,5z"/>
     <path id="svg_28" fill-rule="evenodd" clip-rule="evenodd" d="m466.71701,251.589996c3.278992,-13.065994 -6.854004,-24.104004 -2,-35c6.324005,2.636002 11.053986,27.281006 7,34c-0.819,1.358002 -0.454987,2.492004 -3,2l-0.5,-1.5l-1.5,0.5z"/>
     <path id="svg_29" fill-rule="evenodd" clip-rule="evenodd" d="m462.884003,259.089996l1.833008,-0.5c-2.46402,6.203003 2.070984,19.403992 -7,19c-3.562012,-7.729004 -2.528015,-15.635986 4,-20l1.166992,1.5z"/>
     <path id="svg_30" fill-rule="evenodd" clip-rule="evenodd" d="m300.71701,242.589996c3.721985,-5.72699 12.777985,-11.065994 22,-8c-3.640015,6.027008 -14.627014,4.706009 -19,10l-1.299988,-1.300003l-1.700012,-0.699997z"/>
     <path id="svg_31" fill-rule="evenodd" clip-rule="evenodd" d="m365.71701,237.589996c-1.463013,4.960999 -11.489014,8.300003 -15,5c1.778992,-4.453003 10.393982,-6.621994 15,-5z"/>
     <path id="svg_32" fill-rule="evenodd" clip-rule="evenodd" d="m321.71701,245.589996c0.681,-3.651001 6.880005,-1.811996 8,0c-0.757996,2.576004 -3.191986,3.475006 -7,3l0.5,-1.832993l-1.5,-1.167007z"/>
     <path id="svg_33" fill-rule="evenodd" clip-rule="evenodd" d="m301.21701,261.424011l1.5,1.166992c-0.707001,2.218018 -4.692993,3.322021 -6,2c0.020996,-3.311981 1.687988,-4.979004 5,-5l-0.5,1.833008z"/>
     <path id="svg_34" fill-rule="evenodd" clip-rule="evenodd" d="m283.71701,247.589996c1.002991,9.330017 5.136993,15.529999 8,23c-8.53302,6.933014 -20.025024,-19.024994 -8,-23z"/>
     <path id="svg_35" fill-rule="evenodd" clip-rule="evenodd" d="m237.716995,263.589996c3.667999,-5.917999 13.490997,1.583008 16,0c1.945007,-1.052002 -2.524002,-4.062988 -1,-8c3.736008,-1.069 2.850006,2.483002 6.000015,2c13.752991,22.274994 -16.949005,44.759979 -4.000015,66c2.000015,0 4.000015,0 6.000015,0l1.166992,1.5l1.833008,-0.5c0,0.333008 0,0.666992 0,1c2,0 4,0 6,0l-0.5,1.833008l1.5,1.166992c1.767975,9.238007 -5.553009,14.979004 -9,22c-4.427002,-0.475983 -4.973022,1.376007 -8.000015,0l0.5,-1.5l-0.5,-1.5c2.572006,-6.428009 8.768997,-9.230988 9.000015,-18c-7.742004,-1.074982 -10.056015,3.277008 -15.000015,5c0.434998,4.565002 -1.011002,11.011017 1,14l-1.5,0.5l0.5,1.5c-0.442993,0.890991 -0.877991,1.787994 -2,2c1.077011,5.589996 7.268005,6.065002 7,13l-1.832993,-0.5l-1.167007,1.5c-4.779999,-5.553986 -10.536011,-10.130981 -14,-17c0.414001,-5.919006 6.212997,-6.45401 5,-14c3.452011,-0.214996 3.268997,-4.063995 6,-5c1.583008,-7.589996 -2.380997,-14.533997 -2,-21c0.386002,-6.55899 5.465012,-10.442993 6,-18c-0.431,-2.235992 -4.927994,-0.404999 -7,-1l-0.5,-1.5l-1.5,0.5c0,-1 0,-2 0,-3c-1,0 -2,0 -3,0l0.5,-1.833008l-1.5,-1.166992c4.331009,-3.669983 12.862,-3.138 19.000015,-5c0.153992,-10.622009 -10.763016,-12.765991 -19.000015,-12l0.5,-1.5l-0.5,-1.5z"/>
     <path id="svg_36" fill-rule="evenodd" clip-rule="evenodd" d="m278.21701,323.756989l-1.5,-1.166992c-0.38501,-2.615021 -3.207001,-2.794006 -2,-7c6.21701,-1.934021 13.786011,-4.552002 19,-2l-0.5,1.833008l1.5,1.166992c-4.237,2.763 -13.665009,0.334991 -13,8l-1.5,-0.5l0.5,1.5c-1,0 -2,0 -3,0l0.5,-1.833008z"/>
     <path id="svg_37" fill-rule="evenodd" clip-rule="evenodd" d="m299.549988,311.089996l-1.833008,0.5c1.197021,-6.449982 -5.177002,-10.529999 -1,-14c4.059021,2.274017 4.568024,8.098999 7,12c-0.559998,1.440002 -1.559998,2.440002 -3,3l-1.166992,-1.5z"/>
     <path id="svg_38" fill-rule="evenodd" clip-rule="evenodd" d="m282.21701,327.089996l-0.5,-1.5c10.992004,-5.34201 31.290009,-1.376007 34,-15c-2.740997,-5.925995 -11.197998,-6.13501 -14,-12c8.446991,-4.729004 14.046997,10.292999 22,3c3.708984,-0.041992 3.583008,3.75 6,5c5.694,0.694 8.306,-1.694 14,-1c1.238007,2.356995 5.113007,5.386993 2,9c-6.683014,-4.992004 -13.479004,-0.531982 -22,-2c-6.083008,5.251007 -11.431,11.235016 -17,17c-11.862,1.274994 -15.951996,6.575989 -28,5c-0.645996,-3.979004 2.645996,-4.020996 2,-8l1.5,0.5z"/>
     <path id="svg_39" fill-rule="evenodd" clip-rule="evenodd" d="m252.216995,349.089996l0.5,1.5c-0.332993,0 -0.666992,0 -1,0l0.5,-1.5l-0.5,-1.5c0.333008,0 0.667007,0 1,0l-0.5,1.5z"/>
     <path id="svg_40" fill-rule="evenodd" clip-rule="evenodd" d="m236.216995,291.756989l0.5,1.833008c-2.825989,0.825989 -2.590988,-1.408997 -5,-1c0.319,-4.681 0.69101,-9.309021 6,-9l-0.5,1.833008l1.5,1.166992c-0.776993,0.889984 -1.074997,2.257996 -1,4l-1.5,1.166992z"/>
     <path id="svg_41" fill-rule="evenodd" clip-rule="evenodd" d="m350.71701,256.589996c5.488007,-2.462997 15.062988,-0.415985 19,2c-1.455017,5.179993 -17.300018,2.209015 -19,-2z"/>
     <path id="svg_42" fill-rule="evenodd" clip-rule="evenodd" d="m359.71701,334.589996c-3.779999,-6.589996 0.562012,-16.330994 -3,-24c-1.794006,-3.862 -5.131012,-5.152008 -8,-8c0,-1 0,-2 0,-3c16.178986,0.134003 23.457977,23.013 11,35z"/>
     <path id="svg_43" fill-rule="evenodd" clip-rule="evenodd" d="m265.71701,355.589996c-1.112,4.222015 -2.528992,8.138 -7,9c-1.416992,-4.535004 0.313995,-8.048004 4,-10l1.166992,1.5l1.833008,-0.5z"/>
     <path id="svg_44" fill-rule="evenodd" clip-rule="evenodd" d="m165.716995,330.589996c0.570999,0.21701 1.169998,0.466003 1.781998,0.746002c4.715012,2.164001 10.110001,6.171997 8.218002,11.253998c-5.422989,-2.13501 -11.315002,-6.075989 -10,-12z"/>
     <path id="svg_45" fill-rule="evenodd" clip-rule="evenodd" d="m408.71701,340.589996c-1.291992,-4.958008 2.420013,-4.912994 2,-9c1.333008,0 2.666992,0 4,0c0.162994,4.497009 0.222992,8.890015 -3,10l-1.166992,-1.5l-1.833008,0.5z"/>
     <path id="svg_46" fill-rule="evenodd" clip-rule="evenodd" d="m181.716995,348.589996c-3.190002,-0.593994 -3.093002,1.877014 -5,0c-1.169998,-6.256989 6.169998,-6.256989 5,0z"/>
     <path id="svg_47" fill-rule="evenodd" clip-rule="evenodd" d="m437.71701,377.589996c5.821014,-3.701996 19.604004,-8.988007 26,-3c-3.742004,5.924011 -13.721008,5.612 -19,10l0,-2l-2,0c1.007996,-3.007996 -2.229004,-1.772003 -4,-2l0.5,-1.833008l-1.5,-1.166992z"/>
     <path id="svg_48" fill-rule="evenodd" clip-rule="evenodd" d="m276.71701,414.589996c-15.041992,-5.380981 -16.881012,-26.713989 -13,-40c1.312988,0.354004 1.572998,1.761017 3,2c3.306,12.027008 2.622986,28.044006 11,35l-1.356995,1.213989l0.356995,1.786011z"/>
     <path id="svg_49" fill-rule="evenodd" clip-rule="evenodd" d="m522.71698,379.589996c-1.195007,8.343018 6.280029,18.040009 2,26c-4.583984,0.584015 -4.661987,-3.337982 -7,-5c-10.380005,-0.496002 -22.419006,3.764008 -26,-5c6.013,-8.987 23.91803,-6.082001 28,-17c0.804993,0.529999 1.623047,1.042999 3,1z"/>
     <path id="svg_50" fill-rule="evenodd" clip-rule="evenodd" d="m58.716999,381.589996c7.771999,2.894989 12.728001,8.605011 16.000004,16l-1.5,1.166992l0.5,1.833008c-1.667,0 -3.333,0 -5,0c-2.750999,-6.247986 -6.313004,-11.686981 -11.000004,-16l1.5,-1.166992l-0.5,-1.833008z"/>
     <path id="svg_51" fill-rule="evenodd" clip-rule="evenodd" d="m86.073997,405.376007l-0.356995,-1.786011c10.714996,6.989014 23.270996,17.344025 23,32c-6.339005,-2.60498 -8.337006,-10.113983 -12,-15c-3.886002,-5.18399 -8.917,-8.52298 -12,-14l1.356995,-1.213989z"/>
     <path id="svg_52" fill-rule="evenodd" clip-rule="evenodd" d="m100.717003,386.589996c3.650993,-4.557983 12.231995,-2.428986 10,3c-3,0 -6,0 -9,0l0.5,-1.833008l-1.5,-1.166992z"/>
     <path id="svg_53" fill-rule="evenodd" clip-rule="evenodd" d="m388.71701,403.589996c4.583984,0.666992 -0.803009,6.054016 0,0l0,0z"/>
     <path id="svg_54" fill-rule="evenodd" clip-rule="evenodd" d="m134.716995,459.589996c-4.035995,-3.296997 -5.875,-8.791992 -6.999992,-15c6.650002,1.351013 8.601997,7.39801 9.999992,14l-1.832993,-0.5l-1.167007,1.5z"/>
     <path id="svg_55" fill-rule="evenodd" clip-rule="evenodd" d="m136.550995,460.089996l1.166992,-1.5c2.906006,0.019012 2.364014,5.651001 1,7c-0.889999,-0.777008 -2.25798,-1.074982 -4,-1c0,-1.666992 0,-3.333008 0,-5l1.833008,0.5z"/>
     <path id="svg_56" fill-rule="evenodd" clip-rule="evenodd" d="m123.717003,501.589996c3.391998,-4.434998 6.641991,1.938995 9.999992,2c-4.330002,8.337006 -8.247993,17.086029 -10.999992,27.000031c-4.060005,0.940979 -8.688004,5.516968 -13,3c1.375999,-8.867004 7.582001,-17.33905 13,-24.000031c1.75,-2.152008 5.57299,-5.212006 2,-5l0.5,-1.833008l-1.5,-1.166992z"/>
     <path id="svg_57" fill-rule="evenodd" clip-rule="evenodd" d="m23.716999,518.590027c6.276001,0.057983 5.479,7.187988 12,7c-6.696999,2.760986 1.558002,14.700989 -4,19c-1.667,0 -3.332998,0 -5,0c-2.389999,-6.731018 -5.137999,-18.029053 -3,-26z"/>
     <path id="svg_58" fill-rule="evenodd" clip-rule="evenodd" d="m131.716995,274.589996c3.257004,5.052002 -2.401001,8.597992 -3,13c-15.199005,4.468018 -18.531998,20.800995 -29.999992,29c0,1 0,2 0,3l-1.833,-0.5l-1.167,1.5c-1.667,-1 -0.708,-4.625 -3,-5c3.954994,-7.044983 10.854988,-11.144989 14,-19c1.476997,-4.477997 -2.928001,-3.070984 -2,-7c11.449997,-1.549988 20.370995,-5.628998 23.999992,-15l1.5,0.5l1.5,-0.5z"/>
     <path id="svg_59" fill-rule="evenodd" clip-rule="evenodd" d="m97.551003,321.089996l1.167,-1.5c3.579994,3.709015 2.034996,14.596008 11,10l1.213997,1.356995l1.786003,-0.356995c-3.623001,7.044006 -2.799004,18.533997 -12,20c-2.901001,-10.919006 -3.952003,-17.497986 -5,-30l1.833,0.5z"/>
     <path id="svg_60" fill-rule="evenodd" clip-rule="evenodd" d="m114.551003,320.089996l-1.833,0.5c-0.739006,-4.406006 3.237,-4.096985 4,-7c3.237999,2.411011 15.792999,-3.735992 16,4l-1.5,1.166992l0.5,1.833008c-2.298004,1.243011 -12.331001,-1.613983 -16,1l-1.167,-1.5z"/>
     <path id="svg_61" fill-rule="evenodd" clip-rule="evenodd" d="m69.717003,317.589996c1.395996,12.233002 0.828995,31.598999 13,36l-1.5,1.166992l0.5,1.833008c-3,0 -6,0 -9,0c-5.676003,-9.98999 -9.099003,-22.234009 -19.000004,-28l1.5,-0.5l-1.5,-0.5c0.353001,-1.312988 1.761002,-1.572998 2,-3l1.5,0.5l1.5,0.5c8.219997,6.782013 4.813,-5.850983 8.000004,-9l1.167,1.5l1.833,-0.5z"/>
     <path id="svg_62" fill-rule="evenodd" clip-rule="evenodd" d="m99.217003,361.423004l-0.5,-1.833008c4.064995,0.937012 9.360001,4.845001 8,8c-4.194,2.95401 -6.906006,-2.681 -9,-5l1.5,-1.166992z"/>
     <path id="svg_63" fill-rule="evenodd" clip-rule="evenodd" d="m56.883999,303.089996l-1.167,1.5c-4.133999,-1.768982 1.220001,-7.653992 -5,-8c1.363003,-2.303986 4.396999,-2.936981 6,-5l1.167,1.5l1.833,-0.5c0.491001,4.490997 -0.507,7.493011 -1,11l-1.833,-0.5z"/>
     <path id="svg_64" fill-rule="evenodd" clip-rule="evenodd" d="m58.716999,268.589996l0,2c-2.349998,-1.31601 -4.545998,-2.787994 -9,-2l0.5,-1.833008l-1.5,-1.166992c-0.162998,-1.162994 0.221001,-1.778992 1,-2c4.702999,-0.005005 12.753002,1.873016 11,5l-2,0z"/>
     <path id="svg_65" fill-rule="evenodd" clip-rule="evenodd" d="m42.883999,277.089996l1.833,-0.5c-0.976997,5.688995 -2.879997,10.453003 -6,14l-1.5,-0.5l-1.5,0.5c-3.343998,-3.247986 2.165001,-12.514984 6,-15l1.167,1.5z"/>
     <path id="svg_66" fill-rule="evenodd" clip-rule="evenodd" d="m34.716999,294.589996l2,0c0.43,14.569 -1.003998,31.003998 1,44l-1.833,-0.5l-1.167,1.5c-7.009998,-15.069 -2.433998,-33.102997 -2,-48c0.810001,0.190002 0.997002,1.002991 2,1l0,2z"/>
     <path id="svg_67" fill-rule="evenodd" clip-rule="evenodd" d="m40.550999,348.089996l1.167,-1.5c5.939003,3.394989 6.960003,11.705994 11,17c6.297001,0.037018 13.304005,-0.638 17.000004,2c-3.583,5.075989 -19.918003,0.727997 -27.000004,5l0.5,-1.5l-1.5,-0.5c-0.240997,-7.425995 -5.708,-9.625 -9,-14l1.300003,-1.299988l0.699997,-1.700012c2.618,2.632996 5.163002,0.088013 4,-4l1.833,0.5z"/>
     <path id="svg_68" fill-rule="evenodd" clip-rule="evenodd" d="m31.967001,351.589996l-0.250002,2c-1.615,0.282013 -1.721998,-0.945007 -3,-1l0.5,-2.25l1.5,-1.75c0.807001,0.860016 2.739002,0.593994 3,2l-1.749998,1z"/>
     <path id="svg_69" fill-rule="evenodd" clip-rule="evenodd" d="m24.216999,335.089996l-0.5,1.5c-12.52,-3.479004 -8.272999,-23.72699 -16.999999,-31c-1,0 -2,0 -3,0l-1.167,-1.5l-1.833,0.5c-1.877,-1.906982 0.593,-1.809998 0,-5c5.027,-1.993988 5.973,1.576996 11,2c2.381,7.619019 7.924001,12.075989 7.999999,22c2.587002,3.412994 5.622002,6.377991 6,12l-1.5,-0.5z"/>
     <path id="svg_70" fill-rule="evenodd" clip-rule="evenodd" d="m19.551001,373.089996l1.167,-1.5c2.131001,1.869019 4.836,3.164001 5,7l-1.5,1.166992l0.5,1.833008c-5.427999,0.095001 -5.742001,-4.924988 -7,-9l1.833,0.5z"/>
     <path id="svg_71" fill-rule="evenodd" clip-rule="evenodd" d="m34.550999,392.089996l1.167,-1.5c10.768002,7.251007 14.056,17.563019 18,34c1.800003,7.502014 3.044003,11.604004 4,21c1.324001,13.016998 8.273998,23.765015 9.000004,38c-2.510002,5.149017 -7.508003,10.894012 -9.000004,19c-1.275997,6.93399 1.129002,15.251007 -2,20.000031c-1.418999,-0.085999 -2.831997,-0.165039 -3,1c-6.723,-3.874023 -0.701,-10.697998 -3,-17.000031c-4.868,-1.272003 -4.68,5.819977 -8,3c0.331001,-9.083984 15.800003,-18.299988 17,-24c0.195,-0.925995 -1.401997,-0.812988 -2,-1l0.5,-1.833008l-1.5,-1.166992c7.749001,-5.928986 -2.734997,-21.427002 -5,-36c-0.405998,-2.609985 0.440002,-6.645996 0,-9c-2.349998,-12.574982 -6.671997,-24.209991 -9,-33c-2.426998,-4.572998 -8.019997,-5.979004 -9,-12l1.833,0.5z"/>
     <path id="svg_72" fill-rule="evenodd" clip-rule="evenodd" d="m37.883999,502.089996l1.833,-0.5c-2.857998,5.143005 -4.272999,11.72702 -11,13.000031c0.187,-7.146027 4.245003,-10.422028 8,-14.000031l1.167,1.5z"/>
     <path id="svg_73" fill-rule="evenodd" clip-rule="evenodd" d="m175.716995,389.589996c-2.228989,3.438019 -2.608002,8.726013 -5,12c2.529999,9.471008 10.303009,13.696991 9,27c-5.044998,-1.643005 -8.475998,-7.513 -11,-12c-2.649002,-4.710999 -4.493988,-11.117004 -7,-16l1.5,-1.166992l-0.5,-1.833008c0.333008,0 0.667007,0 1,0c4.562012,-3.050995 5.283005,-7.415985 3,-13c-3.752991,-9.178009 -2.112,-24.546997 -3,-34c2.483002,-2.36499 5.886002,-0.01001 9,0c-3.311996,11.757996 -3.293991,30.917999 4,38l-1,0l0,1z"/>
     <path id="svg_74" fill-rule="evenodd" clip-rule="evenodd" d="m138.884003,385.089996l-1.167007,1.5c-6.01799,-9.315002 -3.256989,-27.410004 -13.999992,-32c2.360001,-3.639984 10.297005,-1.703003 7.999992,-10c-0.384995,-4.949005 -7.294998,-3.371002 -5.999992,-10c6.133995,0.532013 8.883003,4.450012 12.999992,7l-0.5,1.5l1.5,0.5c-11.22699,11.343994 4.162003,23.95401 1,42l-1.832993,-0.5z"/>
     <path id="svg_75" fill-rule="evenodd" clip-rule="evenodd" d="m181.216995,390.089996l-1.5,-0.5c0.419998,-2.225983 5.306,-0.78299 6,0c0.360001,3.166016 -5.488998,4.47699 -6,1l1.5,-0.5z"/>
     <path id="svg_76" fill-rule="evenodd" clip-rule="evenodd" d="m374.71701,1.59c22.671997,8.318 46.696991,5.676 68,8l-1.5,1.167l0.5,1.833c-9.808014,2.523 -22.927002,3.59 -33,2c-2.52301,-0.398 -11.484985,-0.679 -17,-2c-4.041992,-0.969 -13.196991,-3.936 -18,-8l1.5,-1.167l-0.5,-1.833z"/>
     <path id="svg_77" fill-rule="evenodd" clip-rule="evenodd" d="m443.21701,11.424l-0.5,-1.833c12.809998,-2.193 20.890991,4.959001 29,10c5.867004,3.647001 13.481995,11.211 19,17c5.735992,6.019001 11.558014,16.004002 16,24c1.867004,3.361 2.010986,9.190998 6.999969,11.000004c0.575012,7.722 7.04303,14.260994 11,21c6.631042,11.292 11.199036,22.625999 21,31c-0.816956,5.908997 5.735046,8.509003 6,14c0.344055,7.126999 -5.536987,12.86499 -12,16l0.5,-1.833008l-1.5,-1.166992c0.059021,-5.275009 5.751038,-4.916 6,-10c-18.063965,-32.936005 -39.115967,-62.883003 -55.999969,-97.000004c-5.575989,-3.09 -9.264008,-8.069 -12,-14c-11.746002,-5.587 -19.955994,-14.710999 -35,-17l1.5,-1.167z"/>
     <path id="svg_78" fill-rule="evenodd" clip-rule="evenodd" d="m537.883972,154.089996l1.833008,-0.5c-5.504028,10.830002 -15.156006,17.51001 -22,27c-10.502014,0.541 -58.001007,-7.203003 -53,14c9.987976,2.012009 12.210999,11.789001 19,17c0.640991,13.605011 6.341003,23.240005 8,34c1.294983,8.399002 -1.985016,8.983002 -6,15c-3.734009,5.597015 -5.445007,12.165009 -8,19c-1.354004,3.621002 -1.911011,7.436005 -3,10c-0.527008,1.242004 -2.661011,1.552002 -3,3c-1.095001,4.673004 0.175995,10.812012 0,17c-0.154999,5.473999 -2.490021,11.25 0,16c3.575989,6.162018 9.21698,2.796997 14,6c5.234985,3.506012 3.858978,8.085999 6,14c2.46698,6.81601 7.056976,12.988007 8,19c8.483978,0.734009 16.255981,0.265015 26,0c-1.424011,14.127014 -16.087006,7 -25,8c-1.894012,6.22699 3.089996,5.576996 4,9c-3.949005,1.718018 -8.455017,2.877991 -14,3l0.5,-1.833008l-1.5,-1.166992c-0.184021,-0.850983 0.389984,-0.942993 1,-1c1.899994,-5.039001 -1.700012,-6.585999 -3,-9c-1.119995,-2.080994 -2.107025,-6.104004 -5,-7c0.858002,-6.858002 -2.639008,-9.360992 -3,-15c-1.011017,-4.678009 4.010986,-3.321991 3,-8c-9.154022,-2.122009 -18.132996,-8.704987 -25,0c-0.726013,3.05899 1.725983,2.94101 1,6c-9.451019,5.549011 -17.82901,12.17099 -28,17l0.5,-1.833008l-1.5,-1.166992c1.497986,-3.835999 5.716003,-4.950989 8,-8c-0.334015,-2.333008 -1.025024,-4.30899 -3,-5c6.595001,-10.404999 21.147003,-12.852997 30,-21c-4.696014,-6.636993 -1.651001,-21.015991 -4,-30c-1.957001,-2.042999 -5.018005,-2.981995 -9,-3c1.849976,11.963013 -2.111023,21.403015 -1,33c-4.098022,2.235016 -7.64801,5.019012 -11,8l-0.700012,-1.699982l-1.299988,-1.300018c7.34198,-12.174988 14.722992,-38.027008 1,-49c-5.311005,-14.074982 -17.02301,-31.366989 -12,-55c0.199982,-0.942001 1.063995,-1.748993 2,-2l1.166992,1.5l1.833008,-0.5c-1.673004,12.742004 3.066986,23.973007 6,33c0.744995,2.294006 0.332001,5.252991 1,7c1.199005,3.139008 4.263977,6.072998 5,9c0.375,1.490997 -0.576996,3.585999 0,5c0.200989,0.492004 1.711975,-0.079987 2,1c0.714996,2.677002 2.229004,4.304993 4,7c3.332977,0 6.666992,0 10,0c-1.263,-3.255981 4.029999,-6.434998 5,-8c0.703979,-1.138 0.022003,-3.350983 1,-5c0.408997,-0.690002 2.751984,-1.322998 3,-2c0.520996,-1.423004 -0.653015,-3.641998 0,-5c1.845001,-3.833984 6.104004,-7.19101 8,-11c6.674988,-13.403992 -1.119019,-26.199997 -3,-44c-7.494995,-2.25 -10.47702,-0.604004 -20,-3c-2.196014,4.804001 -6.729004,7.272003 -8,13c0.044983,5.28801 5.802002,4.865005 8,8c-0.406006,10.296997 11.145996,21.56601 -2,25l-0.5,-1.5l-0.5,-1.5c-1.069,-3.735992 2.483002,-2.849991 2,-6c-3.466003,-5.04599 -3.115021,-15.020996 -12,-17c-2.963013,-6.093002 -0.388,-19.919998 6,-25c8.216003,0.549011 13.566986,-1.765991 22,-1c-1.084015,-5.25 -7.51001,-5.155991 -14,-5l0.5,-1.832993l-1.5,-1.167007c6.356995,-13.641998 12.212982,-27.787994 16,-44l1.166992,1.5l1.833008,-0.5c0.617981,7.285004 -1.743011,11.589996 -1,19c18.237,0.531006 26.687988,-3.106995 46,-2c6.460999,-6.205994 11.955994,-13.376999 19,-19l1.166992,1.5z"/>
     <path id="svg_79" fill-rule="evenodd" clip-rule="evenodd" d="m429.21701,363.423004l1.5,1.166992c0.122986,2.205994 -6.996002,5.287018 -2,6l-0.5,1.833008l1.5,1.166992c-3.550995,3.11499 -7.062988,6.269989 -12,8l0.5,-1.5l-1.5,-0.5c1.381989,-4.049011 -2.17099,-3.162994 -2,-6c2.743011,-6.256989 8.587006,-9.412994 15,-12l-0.5,1.833008z"/>
     <path id="svg_80" fill-rule="evenodd" clip-rule="evenodd" d="m391.416992,389.290985l1.299988,1.300018c-7.906982,13.092987 -18.05899,23.940979 -29,34c-2.04599,3.488983 3.60202,7.17099 -2,9l-1.166992,-1.5l-1.833008,0.5c-1.580994,-4.547028 -4.007996,0.510986 -10,4c-3.220001,1.873993 -7.731995,2.571991 -10,4c-1.911987,1.203979 -2.242004,3.218994 -4,4c-3.582001,1.59198 -8.049988,2.315979 -10,6c-2.767975,0.89798 -9.388,-2.055023 -9,2c1.538025,1.794983 5.861023,0.804993 6,4l-1.5,1.166992l0.5,1.833008c-7.760986,1.477997 -10.128998,-3.32901 -16,-1c-4.324005,4.561981 -3.615997,10.167999 -3,18c0.613007,1.386993 3.850006,0.149994 4,2l-1.5,1.166992l0.5,1.833008c-5.130981,0.007996 -6.561005,-1.46402 -11,0l0.5,-1.833008l-1.5,-1.166992c1.783997,-1.340027 3.094025,-5.788025 1,-8c-4.566986,-2.772034 -8.190979,2.806976 -14,2l0.5,-1.833008l-1.5,-1.166992c3.64801,-4.353027 13.257019,-2.743011 18,-6c-1.042999,-3.512024 -6.078979,-3.055023 -9,-3c-16.401001,0.309998 -32.007996,8.85498 -49.999985,9l0.5,-1.833008l-1.5,-1.166992c14.188995,-5.171021 35.409988,-6.277008 46.999985,-11c0.726013,-3.059021 -1.725983,-2.94101 -1,-6c-11.343994,-2.654999 -13.065979,-14.935028 -18,-24l1.700012,-0.700012l1.299988,-1.299988c6.324005,3.34198 12.085999,7.246979 17,12c-2.316986,3.009979 -4.259003,0.589996 -8,0c-0.022003,2.35498 1.723022,2.944 1,6c12.811005,1.245972 20.26001,12.995972 33,11c0.20401,-3.20401 -4.368988,-1.631012 -4,-5c37.123016,-10.877014 62.466003,-33.534027 84,-60l0.700012,1.699982z"/>
     <path id="svg_81" fill-rule="evenodd" clip-rule="evenodd" d="m337.884003,460.089996l1.833008,-0.5c-0.914001,2.399017 2.313995,5.970001 6,6c3.631989,0.029999 5.858002,-5.615997 9,-8c1.847992,-1.402008 6.240997,-2.316986 9,-4c5.270996,-3.213989 17.974976,-12.48999 22,-14c3.59198,0.075012 8.143982,-0.809998 9,2c7.520996,-2.479004 15.923004,-4.076996 20,-10c7.149994,-0.013 14.507996,-11.94101 18,-1c-15.956024,8.506012 -30.774017,21.914001 -54,20c-7.497009,5.835999 -18.585022,8.080994 -21,19c1.927002,5.072998 9.071991,4.928009 9,12c-12.551025,2.46701 -14.149017,-14.45401 -29,-13c0.391998,5.608002 6.822998,5.177002 8,10l-1.700012,0.700012l-1.299988,1.299988c-3.821014,-1.846008 -7.174011,-4.160004 -9,-8c-5.328003,1.006012 -15.81601,-3.148987 -14,5c1.231995,3.037994 3.437988,-1.083984 6,0c1.253998,5.292999 6.375977,11.332001 4,17c-5.038025,-0.962006 -5.479004,-6.520996 -7,-11c-6.354004,-1.859009 -13.128998,2.020996 -18,-2l1.5,-1.166992l-0.5,-1.833008c3.642975,0.30899 6.507996,-0.158997 9,-1c-0.091003,-13.756989 14.787994,-12.54599 22,-19l1.166992,1.5z"/>
     <path id="svg_82" fill-rule="evenodd" clip-rule="evenodd" d="m289.96701,482.589996l1.75,1c-0.028015,0.972992 -1.223999,0.776001 -2,1l-0.25,-2l-1.75,-1c0.027008,-0.972992 1.223999,-0.776001 2,-1l0.25,2z"/>
     <path id="svg_83" fill-rule="evenodd" clip-rule="evenodd" d="m285.21701,485.423004l1.5,1.166992c-13.100006,13.420013 -49.781006,30.337982 -67,10l1.5,-1.166992l-0.5,-1.833008c4.320999,0.346008 6.664993,2.667999 9,5c5.932999,-1.243011 11.197006,1.623993 17,1c14.092987,-1.515991 27.027008,-11.424011 39,-16l-0.5,1.833008z"/>
     <path id="svg_84" fill-rule="evenodd" clip-rule="evenodd" d="m199.216995,472.756989l0.5,1.833008c-16.284012,1.057007 -29.621994,6.052979 -43,-2c-2.408997,-0.408997 -2.173996,1.825989 -5,1l0.5,-1.833008l-1.5,-1.166992c10.990005,-11.01001 20.797012,-23.203003 31,-35l1.167007,1.5l1.832993,-0.5c-1.153,8.514008 -9.121994,10.212006 -11,18c5.042999,1.167999 12.608002,-7.925995 19,-1l-1.5,1.166992l0.5,1.833008c-3,0 -6,0 -9,0c-1.452988,2.546997 -5.315994,2.684998 -7,5c-4.640991,2.691986 -12.60701,2.059998 -14,8c5.606003,3.061005 22.443008,3.294983 28,0c0.917999,-5.117004 -4.375992,-4.018005 -2,-8c7.346008,0.320007 8.875,6.458008 13,10l-1.5,1.166992z"/>
     <path id="svg_85" fill-rule="evenodd" clip-rule="evenodd" d="m138.417007,483.290985l1.300003,1.300018c-0.237,5.065979 -4.561005,10.353973 -8,9c-1.397995,-3.777008 3.119995,-9.27002 6,-12l0.699997,1.699982z"/>
     <path id="svg_86" fill-rule="evenodd" clip-rule="evenodd" d="m184.550995,432.089996l-1.833008,0.5c1.608002,-16.039001 10.985001,-34.130981 13,-50c-3.68399,-8.315002 -10.460999,-13.539001 -11,-25c8.902008,1.182007 10.793015,17.812012 17,25c-0.408997,9.257996 -2.352982,16.980011 -7,22c-2.816986,9.850006 -3.541992,21.791992 -9,29l-1.166992,-1.5z"/>
     <path id="svg_87" fill-rule="evenodd" clip-rule="evenodd" d="m200.216995,458.423004l-0.5,-1.833008c4.125,0.541992 6.424011,2.908997 9,5l-1.5,1.166992l0.5,1.833008c-5.386002,0.718994 -6.810989,-2.522003 -9,-5l1.5,-1.166992z"/>
     <path id="svg_88" fill-rule="evenodd" clip-rule="evenodd" d="m210.216995,464.423004l-0.5,-1.833008c3.835007,0.498993 6.294998,2.371002 8,5c4.973007,0.149994 12.761002,-2.647003 19,-1l-0.5,1.833008l1.5,1.166992c-8.30899,1.743011 -26.360992,7.509003 -29,-4l1.5,-1.166992z"/>
     <path id="svg_89" fill-rule="evenodd" clip-rule="evenodd" d="m250.884003,403.089996l-1.167007,1.5c-5.959991,-3.787994 -8.700989,-12.488007 -14,-19c-0.521988,-0.641998 -2.641998,-0.485992 -3,-1c-1.085999,-1.55899 -1.408997,-4.437988 -3,-7c-9.645996,-15.531006 -22.835999,-42.059998 -9,-64l1.167007,1.5l1.832993,-0.5c-9.858994,41.815002 15.228012,64.317993 29,89l-1.832993,-0.5z"/>
     <path id="svg_90" fill-rule="evenodd" clip-rule="evenodd" d="m226.550995,301.089996l-1.833008,0.5c1.391998,-9.609985 -5.593994,-15.421997 -8,-23c-2.649002,-8.345001 -1.393997,-17.791992 -8,-23c-1.018997,-6.774994 -0.003998,-11.856995 -1,-19c2.630997,-2.845993 3.791,-1.959991 7,-3c-1.75499,-18.373993 1.410995,-37.914993 11,-48l0.699997,1.699997l1.300003,1.300003c-5.42099,14.37001 -7.757996,28.237 -7,47c11.328003,2.174011 30.231018,1.539001 29,13c-9.919998,-1.080002 -18.122986,-3.876999 -29,-4c-3.237991,14.821014 1.649002,26.882996 6,39c0.578003,1.609009 0.085999,3.833008 1,6c1.470001,3.483002 6.60701,8.644989 0,13l-1.166992,-1.5z"/>
     <path id="svg_91" fill-rule="evenodd" clip-rule="evenodd" d="m228.550995,182.089996l-1.833008,0.5c4.767014,-13.567001 11.034012,-25.632996 14,-41c3.160019,0.492996 0.371002,-4.96199 4,-4c-2.084991,-6.761002 3.359009,-10.509995 4,-16c1.311996,-11.232994 -9.347992,-20.022995 -10,-33c-1.281998,-1.717995 -4.761002,-1.238998 -5,-4l1.5,-1.167l-0.5,-1.833c0.667007,0 1.333008,0 2,0c6.5,-6.462997 -3.201004,-12.345993 -4,-17.999996c1.479004,-0.521 2.520996,-1.479 4,-2c14.074997,4.257999 7.582001,29.085003 13,41.999996c3.078003,0.745003 1.921997,-2.744995 5,-2l1.214005,1.357002l1.785995,-0.357002c-4.761002,3.545006 -2.738998,10.298004 -4,19c-1.304993,9.007004 -6.099991,18.360001 -9,27c-2.304993,6.865005 -5.270004,14.419998 -5,21c27.665009,-12.632004 66.102997,-23.470993 107,-18c14.960999,2.001007 37.512024,8.084 50,14c8.764008,4.151001 16.576996,12.094009 27,16c-0.856995,3.190002 1.574005,3.093002 2,5c8.395996,3.981003 11.963013,18.740997 26,11l-0.5,1.833008l1.5,1.166992c-4.347992,4.652008 -13.257996,4.742004 -19,8c0,-1 0,-2 0,-3c-7.471985,0.529007 -3.88501,12.115997 -10,14c-0.339996,3.100998 2.315002,4.777008 0,7c-3.73999,1.328003 -6.912994,-2.981003 -9,0l-1.299988,1.300003l-0.700012,1.699997c-1.493988,-1.505997 -5.700989,-0.298996 -5,-4c-0.493011,-3.160004 4.962006,-0.371002 4,-4c-2.343994,-1.98999 -6.550995,-2.11499 -6,-7c0.738007,0.708008 4.894989,2.492004 4,-1c-1.389008,-3.610992 -6.520996,-3.479004 -9,-6c-1.446991,-3.780991 2.748016,-1.918991 2,-5c-1.963989,-1.703003 -4.997986,-2.334991 -6,-5c1.511017,-5.876999 -5.737976,-8.216003 -4,-11c3.36499,0.968002 7.238007,1.428009 8,5c5.321014,-1.037994 -2.975983,-2.940994 -1,-7l2,0l0,-2c5.910004,3.423004 8.308014,10.359009 15,13c0.776001,-12.442993 -12.138,-11.194992 -16,-19c-1,0 -2,0 -3,0l0.5,-1.5l-1.5,-0.5c-17.196991,-10.802002 -39.442993,-16.556 -65,-19c-1.927002,0.406998 -0.790009,3.876999 -4,3c-11.490997,-0.490997 -21.725983,0.275009 -29,4l-1.166992,-1.5l-1.833008,0.5c0,-1 0,-2 0,-3c-24.998993,5.335007 -49.926987,10.740005 -66,25l-1.166992,-1.5zm193.166016,19.5c1,0 2,0 3,0c0.182007,-2.181992 -0.817993,-3.181992 -3,-3c0,1 0,2 0,3z"/>
     <path id="svg_92" fill-rule="evenodd" clip-rule="evenodd" d="m233.216995,82.757004l0.5,1.832993c-10.628006,-1.508995 -14.369995,-28.910995 -8,-39.999996c3.966003,-6.904999 13.418991,-9.573002 20,-11l-0.5,1.833l1.5,1.167c-3.631989,5.035 -10.880997,6.452999 -16,10c-1.791,11.897999 -2.052994,27.939999 4,34.999996l-1.5,1.167007z"/>
     <path id="svg_93" fill-rule="evenodd" clip-rule="evenodd" d="m287.21701,10.757l-1.5,-1.167c1.438995,-2.894 5.959991,-2.707 8,-5c16.561005,3.842 33.542999,1.749 48,-1l-0.5,1.833l1.5,1.167c-2.22699,7.127 -16.848999,1.854 -22,4c-0.981995,0.409 -0.753998,1.92 -2,2c-9.574005,0.616 -19.43399,-1.2 -32,0l0.5,-1.833z"/>
     <path id="svg_94" fill-rule="evenodd" clip-rule="evenodd" d="m269.21701,90.757004l-1.5,-1.167007c1.542999,-4.350998 6.402985,-3.970993 7,-8c0.356995,-2.409996 -1.053986,-7.421997 -3,-9c-1.408997,-1.142998 -6.501007,2.412003 -6,-2l1.5,-1.167l-0.5,-1.833c4.160004,-0.172997 0.292999,-8.372997 5,-7.999996c1.811005,4.855999 5.511993,7.821003 5,14.999996c2.82901,0.171005 6.859985,-0.859993 7,2c1.959991,6.492004 -3.549988,7.739006 -6,10c-2.596008,2.396004 -5.360992,5.424004 -9,6l0.5,-1.832993z"/>
     <path id="svg_95" fill-rule="evenodd" clip-rule="evenodd" d="m258.884003,57.09l-1.166992,1.5c-3.465012,-1.625999 -7.476013,-15.693001 0,-16c4.033997,1.966 2.798004,9.202 3,15l-1.833008,-0.5z"/>
     <path id="svg_96" fill-rule="evenodd" clip-rule="evenodd" d="m471.549988,153.089996l-1.833008,0.5c1.443024,-3.679993 0.15802,-7.866989 1,-10c13.714996,-4.410995 26.544006,-1.378998 40,1c8.205017,7.781006 0.930023,18.253006 -10,18l0.5,-1.832993l-1.5,-1.167007c0.764008,-2.903 4.739014,-2.593994 4,-7c-11.450989,-0.384003 -21.079987,-2.039993 -31,2l-1.166992,-1.5z"/>
     <path id="svg_97" fill-rule="evenodd" clip-rule="evenodd" d="m499.21701,161.423996l1.5,1.167007c-3.792999,3.060989 -15.315002,5.524002 -18,1c4.195007,-2.804001 10.627014,-3.373001 17,-4l-0.5,1.832993z"/>
     <path id="svg_98" fill-rule="evenodd" clip-rule="evenodd" d="m416.075012,229.376007l-0.356995,-1.785995c2.891998,0.440994 4.55899,2.108002 5,5c-2.203003,0.552002 -5.516998,1.468002 -6,-2l1.356995,-1.214005z"/>
     <path id="svg_99" fill-rule="evenodd" clip-rule="evenodd" d="m277.21701,471.423004l1.5,1.166992c-1.54599,1.45401 -0.880005,5.119019 -1,8c-6.979004,5.028015 -16.247009,13.078003 -29,9l1.5,-1.166992l-0.5,-1.833008c6.450012,0.783997 9.145996,-2.187988 14,-3c-0.769989,-3.895996 -8.731003,-0.60199 -8,-6c4.820007,-5.179993 12.643005,-7.355988 22,-8l-0.5,1.833008z"/>
     <g id="svg_100">
      <path id="svg_101" fill-rule="evenodd" clip-rule="evenodd" fill="none" stroke="#000000" stroke-width="3.1623" stroke-linecap="round" d="m356.549988,68.089996c-0.221985,0.667007 -0.444,1.333 -0.665985,2"/>
      <path id="svg_102" fill-rule="evenodd" clip-rule="evenodd" fill="none" stroke="#000000" stroke-width="3.767" stroke-linecap="round" d="m371.884003,62.09c1.041992,-5.522999 3.731995,-10.438999 4.665985,-16"/>
      <path id="svg_103" fill-rule="evenodd" clip-rule="evenodd" fill="none" stroke="#000000" stroke-width="3.1623" stroke-linecap="round" d="m329.884003,69.089996c0.221985,0.667007 0.444,1.333 0.665985,2"/>
      <path id="svg_104" fill-rule="evenodd" clip-rule="evenodd" fill="none" stroke="#000000" stroke-width="2.6874" stroke-linecap="round" d="m445.21701,61.424c1.872986,-0.937 3.329987,-2.561001 5,-2.833"/>
      <path id="svg_105" fill-rule="evenodd" clip-rule="evenodd" fill="none" stroke="#000000" stroke-width="2.8682" stroke-linecap="round" d="m429.71701,93.589996c0.147003,-0.015999 0.29599,-0.031998 0.442993,-0.047997c7.164001,-9.911003 15.265015,-19.511002 25.057007,-26.784996"/>
      <path id="svg_106" fill-rule="evenodd" clip-rule="evenodd" fill="none" stroke="#000000" stroke-width="3.0768" stroke-linecap="round" d="m383.21701,82.089996c2.240997,1.896004 5.424988,0.367004 8,1.333"/>
      <path id="svg_107" fill-rule="evenodd" clip-rule="evenodd" fill="none" stroke="#000000" stroke-width="3.4818" stroke-linecap="round" d="m475.21701,132.757004c12.265991,0.125 24.825989,-1.790009 36,-6.667007"/>
      <path id="svg_108" fill-rule="evenodd" clip-rule="evenodd" fill="none" stroke="#000000" stroke-width="3.7483" stroke-linecap="round" d="m448.931,88.946999c3.316986,-4.393997 8.583008,-6.700996 13.286011,-9.189995"/>
      <path id="svg_109" fill-rule="evenodd" clip-rule="evenodd" fill="none" stroke="#000000" stroke-width="2.6024" stroke-linecap="round" d="m448.21701,139.089996c2.511993,4.195007 6.825012,6.324005 10,10"/>
      <path id="svg_110" fill-rule="evenodd" clip-rule="evenodd" fill="none" stroke="#000000" stroke-width="3.3802" stroke-linecap="round" d="m279.71701,188.589996c8.665985,-9.588989 18.835999,-17.996994 31.5,-21.832993"/>
      <path id="svg_111" fill-rule="evenodd" clip-rule="evenodd" fill="none" stroke="#000000" stroke-width="2.9954" stroke-linecap="round" d="m275.550995,204.423996c9.291016,-13.071991 20.747986,-25.388 36.666992,-29.332993"/>
      <path id="svg_112" fill-rule="evenodd" clip-rule="evenodd" fill="none" stroke="#000000" stroke-width="2.4833" stroke-linecap="round" d="m272.884003,197.757004c0.618011,-0.348999 0.807007,-1.505997 1.333008,-2.667007"/>
      <path id="svg_113" fill-rule="evenodd" clip-rule="evenodd" fill="none" stroke="#000000" stroke-width="2.892" stroke-linecap="round" d="m462.884003,259.089996c1.806,-2.630981 4.152985,-4.927002 5.333008,-8"/>
      <path id="svg_114" fill-rule="evenodd" clip-rule="evenodd" fill="none" stroke="#000000" stroke-width="3.6515" stroke-linecap="round" d="m296.21701,253.089996c2.156006,-3.21199 2.895996,-7.311996 6.200012,-9.800003"/>
      <path id="svg_115" fill-rule="evenodd" clip-rule="evenodd" fill="none" stroke="#000000" stroke-width="3.72" stroke-linecap="round" d="m301.21701,261.424011c9.256989,-1.498016 12.445007,-13.561005 22,-14.667007"/>
      <path id="svg_116" fill-rule="evenodd" clip-rule="evenodd" fill="none" stroke="#000000" stroke-width="3" stroke-linecap="round" d="m261.884003,325.089996c0.182983,-0.666992 0.260986,-1.333008 0.333008,-2"/>
      <path id="svg_117" fill-rule="evenodd" clip-rule="evenodd" fill="none" stroke="#000000" stroke-width="2.7568" stroke-linecap="round" d="m269.21701,327.423004c3.424011,-0.024017 6.177002,-2.013 9,-3.666016"/>
      <path id="svg_118" fill-rule="evenodd" clip-rule="evenodd" fill="none" stroke="#000000" stroke-width="2.9297" stroke-linecap="round" d="m293.21701,315.423004c2.871002,0.07901 5.300995,-1.639008 6.333008,-4.333008"/>
      <path id="svg_119" fill-rule="evenodd" clip-rule="evenodd" fill="none" stroke="#000000" stroke-width="1.291" stroke-linecap="round" d="m282.21701,327.089996c-0.643005,-1 -1.220001,-2 -2,-3"/>
      <path id="svg_120" fill-rule="evenodd" clip-rule="evenodd" fill="none" stroke="#000000" stroke-width="3" stroke-linecap="round" d="m252.216995,367.089996c-0.58699,-0.666992 -0.964996,-1.333008 -1.332993,-2"/>
      <path id="svg_121" fill-rule="evenodd" clip-rule="evenodd" fill="none" stroke="#000000" stroke-width="2.8148" stroke-linecap="round" d="m243.216995,289.089996c-1.102997,2.615997 -4.459991,3.450012 -7,2.666992"/>
      <path id="svg_122" fill-rule="evenodd" clip-rule="evenodd" fill="none" stroke="#000000" stroke-width="2.5022" stroke-linecap="round" d="m230.216995,273.089996c0.150009,-4.199005 3.354004,-8.574982 8,-8"/>
      <path id="svg_123" fill-rule="evenodd" clip-rule="evenodd" fill="none" stroke="#000000" stroke-width="3.1623" stroke-linecap="round" d="m239.216995,284.756989c-0.666992,0.222015 -1.332993,0.444 -2,0.666016"/>
      <path id="svg_124" fill-rule="evenodd" clip-rule="evenodd" fill="none" stroke="#000000" stroke-width="2.2638" stroke-linecap="round" d="m247.216995,349.089996c1.667007,0.584991 3.333008,0.513 5,0"/>
      <path id="svg_125" fill-rule="evenodd" clip-rule="evenodd" fill="none" stroke="#000000" stroke-width="3.0551" stroke-linecap="round" d="m252.216995,349.089996c0.667007,0 1.333008,0 2,0"/>
      <path id="svg_126" fill-rule="evenodd" clip-rule="evenodd" fill="none" stroke="#000000" stroke-width="3.873" stroke-linecap="round" d="m314.21701,267.089996c6.131012,-1.436981 12.070007,-2.347992 16,-8"/>
      <path id="svg_127" fill-rule="evenodd" clip-rule="evenodd" fill="none" stroke="#000000" stroke-width="3.2998" stroke-linecap="round" d="m263.884003,356.089996c18.384003,-18.669006 48.656006,-18.187988 67,-36.333008"/>
      <path id="svg_128" fill-rule="evenodd" clip-rule="evenodd" fill="none" stroke="#000000" stroke-width="3.5532" stroke-linecap="round" d="m381.21701,373.089996c13.890991,-6.095001 27.76001,-16.833984 29.333008,-33"/>
      <path id="svg_129" fill-rule="evenodd" clip-rule="evenodd" fill="none" stroke="#000000" stroke-width="3.0518" stroke-linecap="round" d="m352.21701,453.089996c27.485992,-28.07901 57.330994,-53.630981 92.5,-70.5"/>
      <path id="svg_130" fill-rule="evenodd" clip-rule="evenodd" fill="none" stroke="#000000" stroke-width="3.2544" stroke-linecap="round" d="m424.21701,385.089996c4.964996,-2.208008 9.867004,-4.368988 15,-6.333008"/>
      <path id="svg_131" fill-rule="evenodd" clip-rule="evenodd" fill="none" stroke="#000000" stroke-width="3.7641" stroke-linecap="round" d="m276.359985,412.803986c26.615997,19.688019 52.587006,-9.442993 69.856995,-27.71402"/>
      <path id="svg_132" fill-rule="evenodd" clip-rule="evenodd" fill="none" stroke="#000000" stroke-width="2.8702" stroke-linecap="round" d="m73.217003,398.756989c4.440994,1.950989 8.028,5.651001 12.856995,6.618988"/>
      <path id="svg_133" fill-rule="evenodd" clip-rule="evenodd" fill="none" stroke="#000000" stroke-width="3.0414" stroke-linecap="round" d="m57.216999,382.089996c0.667,0.587006 1.333,0.964996 2,1.333008"/>
      <path id="svg_134" fill-rule="evenodd" clip-rule="evenodd" fill="none" stroke="#000000" stroke-width="2.818" stroke-linecap="round" d="m93.217003,390.089996c2.621994,-1.734985 6.179001,-0.877991 9,-2.333008"/>
      <path id="svg_135" fill-rule="evenodd" clip-rule="evenodd" fill="none" stroke="#000000" stroke-width="3.6075" stroke-linecap="round" d="m390.21701,431.089996c13.162994,-7.178986 26.885986,-14.303009 41.5,-18.5"/>
      <path id="svg_136" fill-rule="evenodd" clip-rule="evenodd" fill="none" stroke="#000000" stroke-width="3.1623" stroke-linecap="round" d="m135.884003,458.089996c0.222,0.666992 0.444992,1.333008 0.666992,2"/>
      <path id="svg_137" fill-rule="evenodd" clip-rule="evenodd" fill="none" stroke="#000000" stroke-width="3.1063" stroke-linecap="round" d="m125.217003,502.756989c-16.906006,7.437988 -34.499001,13.816986 -53,16.332977"/>
      <path id="svg_138" fill-rule="evenodd" clip-rule="evenodd" fill="none" stroke="#000000" stroke-width="3.1623" stroke-linecap="round" d="m96.884003,319.089996c0.222,0.666992 0.445,1.333008 0.667,2"/>
      <path id="svg_139" fill-rule="evenodd" clip-rule="evenodd" fill="none" stroke="#000000" stroke-width="3.8822" stroke-linecap="round" d="m110.931999,330.947998c0.841003,-3.730011 2.291,-7.252991 3.619003,-10.856995"/>
      <path id="svg_140" fill-rule="evenodd" clip-rule="evenodd" fill="none" stroke="#000000" stroke-width="2.8561" stroke-linecap="round" d="m86.217003,284.089996c10.154999,-11.014008 25.374001,-14.917999 39.875999,-19.623993c1.530998,0.901001 3.007004,2.187988 3.811996,3.803986c0.561005,2.221008 0.205994,4.553009 0.311996,6.820007"/>
      <path id="svg_141" fill-rule="evenodd" clip-rule="evenodd" fill="none" stroke="#000000" stroke-width="2.9653" stroke-linecap="round" d="m81.217003,354.756989c6.700996,-0.194 12.543999,3.041016 18,6.666016"/>
      <path id="svg_142" fill-rule="evenodd" clip-rule="evenodd" fill="none" stroke="#000000" stroke-width="1.2247" stroke-linecap="round" d="m55.216999,328.089996c-1.816998,0.186005 -3.848,-0.480011 -5.5,0.5"/>
      <path id="svg_143" fill-rule="evenodd" clip-rule="evenodd" fill="none" stroke="#000000" stroke-width="3.0926" stroke-linecap="round" d="m57.216999,325.089996c-0.329998,-7.242004 0.859001,-14.64801 -0.333,-22"/>
      <path id="svg_144" fill-rule="evenodd" clip-rule="evenodd" fill="none" stroke="#000000" stroke-width="2.9032" stroke-linecap="round" d="m57.883999,293.089996c0.648003,-8.229004 4.057003,-16.697998 0.833,-24.5"/>
      <path id="svg_145" fill-rule="evenodd" clip-rule="evenodd" fill="none" stroke="#000000" stroke-width="2.586" stroke-linecap="round" d="m35.550999,376.423004c1.586002,-3.424011 5.309002,-4.636017 7.667,-7.333008"/>
      <path id="svg_146" fill-rule="evenodd" clip-rule="evenodd" fill="none" stroke="#000000" stroke-width="3.6056" stroke-linecap="round" d="m34.016998,353.290985c-0.501999,-0.45401 -1.248997,-1.092987 -2.049997,-1.699982"/>
      <path id="svg_147" fill-rule="evenodd" clip-rule="evenodd" fill="none" stroke="#000000" stroke-width="2.582" stroke-linecap="round" d="m21.884001,352.756989c2.429998,-0.554993 4.74,-1.682983 7.118999,-2.523987"/>
      <path id="svg_148" fill-rule="evenodd" clip-rule="evenodd" fill="none" stroke="#000000" stroke-width="2.892" stroke-linecap="round" d="m29.003,350.233002c-0.484001,-5.437988 -3.239,-9.963013 -4.786001,-15.143005"/>
      <path id="svg_149" fill-rule="evenodd" clip-rule="evenodd" fill="none" stroke="#000000" stroke-width="2.9469" stroke-linecap="round" d="m24.216999,379.756989c4.302,3.269989 6.591002,8.453003 10.333,12.333008"/>
      <path id="svg_150" fill-rule="evenodd" clip-rule="evenodd" fill="none" stroke="#000000" stroke-width="3.9042" stroke-linecap="round" d="m37.883999,502.089996c4.982002,-7.837982 11.113003,-15.585999 19.333,-19.333008"/>
      <path id="svg_151" fill-rule="evenodd" clip-rule="evenodd" fill="none" stroke="#000000" stroke-width="3.2427" stroke-linecap="round" d="m19.551001,373.089996c-11.995001,-20.541992 -23.367001,-45.132996 -17,-69"/>
      <path id="svg_152" fill-rule="evenodd" clip-rule="evenodd" fill="none" stroke="#000000" stroke-width="4.4721" stroke-linecap="round" d="m29.003,350.233002c0.070999,0.036011 0.143,0.071991 0.213999,0.106995"/>
      <path id="svg_153" fill-rule="evenodd" clip-rule="evenodd" fill="none" stroke="#000000" stroke-width="3.2106" stroke-linecap="round" d="m40.550999,348.089996c-1.653999,-3.285004 -2.653999,-6.863007 -4.667,-10"/>
      <path id="svg_154" fill-rule="evenodd" clip-rule="evenodd" fill="none" stroke="#000000" stroke-width="2.7775" stroke-linecap="round" d="m34.716999,294.589996c1.648003,-0.916992 2.389,-2.889984 2.5,-4.5"/>
      <path id="svg_155" fill-rule="evenodd" clip-rule="evenodd" fill="none" stroke="#000000" stroke-width="2.9475" stroke-linecap="round" d="m42.883999,277.089996c1.853001,-3.722992 3.597,-8.121002 7.333,-10.333008"/>
      <path id="svg_156" fill-rule="evenodd" clip-rule="evenodd" fill="none" stroke="#000000" stroke-width="3.228" stroke-linecap="round" d="m67.884003,318.089996c-1.637001,-10.60199 6.446999,-20.164001 12.333,-27"/>
      <path id="svg_157" fill-rule="evenodd" clip-rule="evenodd" fill="none" stroke="#000000" stroke-width="2.867" stroke-linecap="round" d="m163.216995,399.423004c-7.169998,-6.449005 -18.016998,-7.269012 -24.332993,-14.333008"/>
      <path id="svg_158" fill-rule="evenodd" clip-rule="evenodd" fill="none" stroke="#000000" stroke-width="2.3755" stroke-linecap="round" d="m138.216995,343.089996c6.271011,-2.067993 12.595993,0.578003 16.667007,5.333008"/>
      <path id="svg_159" fill-rule="evenodd" clip-rule="evenodd" fill="none" stroke="#000000" stroke-width="1.1464" stroke-linecap="round" d="m175.716995,388.589996c1.796005,0.535004 3.572998,1.407013 5.5,1.5"/>
      <path id="svg_160" fill-rule="evenodd" clip-rule="evenodd" fill="none" stroke="#000000" stroke-width="3.1623" stroke-linecap="round" d="m441.21701,10.757c0.666992,0.222 1.333008,0.445 2,0.667"/>
      <path id="svg_161" fill-rule="evenodd" clip-rule="evenodd" fill="none" stroke="#000000" stroke-width="2.7729" stroke-linecap="round" d="m491.21701,382.756989c-26.218994,4.988007 -51.311005,15.545013 -75.666992,25.666016"/>
      <path id="svg_162" fill-rule="evenodd" clip-rule="evenodd" fill="none" stroke="#000000" stroke-width="3.1623" stroke-linecap="round" d="m431.21701,362.756989c-0.666992,0.222015 -1.333008,0.444 -2,0.666016"/>
      <path id="svg_163" fill-rule="evenodd" clip-rule="evenodd" fill="none" stroke="#000000" stroke-width="3.4249" stroke-linecap="round" d="m428.21701,372.423004c12.928009,-5.38501 23.733002,-14.748993 37.5,-17.833008"/>
      <path id="svg_164" fill-rule="evenodd" clip-rule="evenodd" fill="none" stroke="#000000" stroke-width="3.0283" stroke-linecap="round" d="m396.21701,399.089996c5.816986,-7.981995 14.307007,-13.174011 22,-19"/>
      <path id="svg_165" fill-rule="evenodd" clip-rule="evenodd" fill="none" stroke="#000000" stroke-width="3.6056" stroke-linecap="round" d="m345.359985,480.803986c-0.432007,-0.467987 -0.911987,-0.979004 -1.342987,-1.514008"/>
      <path id="svg_166" fill-rule="evenodd" clip-rule="evenodd" fill="none" stroke="#000000" stroke-width="3.4766" stroke-linecap="round" d="m138.417007,483.290985c4.03801,-4.373993 8.569,-8.593994 13.800003,-11.53299"/>
      <path id="svg_167" fill-rule="evenodd" clip-rule="evenodd" fill="none" stroke="#000000" stroke-width="3.0706" stroke-linecap="round" d="m182.884003,437.089996c1.093002,-1.666992 1.220993,-3.333008 1.666992,-5"/>
      <path id="svg_168" fill-rule="evenodd" clip-rule="evenodd" fill="none" stroke="#000000" stroke-width="3.0551" stroke-linecap="round" d="m207.216995,462.756989c1,0.571014 2,1.187012 3,1.666016"/>
      <path id="svg_169" fill-rule="evenodd" clip-rule="evenodd" fill="none" stroke="#000000" stroke-width="3.5187" stroke-linecap="round" d="m221.884003,315.089996c1.097,-4.884003 3.481995,-9.161987 4.666992,-14"/>
      <path id="svg_170" fill-rule="evenodd" clip-rule="evenodd" fill="none" stroke="#000000" stroke-width="3.1396" stroke-linecap="round" d="m226.417007,187.291c1.585007,-1.319 1.727997,-3.339005 2.132996,-5.199997"/>
      <path id="svg_171" fill-rule="evenodd" clip-rule="evenodd" fill="none" stroke="#000000" stroke-width="3.8371" stroke-linecap="round" d="m245.216995,35.424c15.567001,-4.954 28.115982,-16.622999 42.000015,-24.667"/>
      <path id="svg_172" fill-rule="evenodd" clip-rule="evenodd" fill="none" stroke="#000000" stroke-width="4.1757" stroke-linecap="round" d="m341.21701,5.424c10.848999,-5.15 22.880005,-8.122 34,-2"/>
      <path id="svg_173" fill-rule="evenodd" clip-rule="evenodd" fill="none" stroke="#000000" stroke-width="3.1623" stroke-linecap="round" d="m233.216995,82.757004c0.667007,0.221992 1.333008,0.445 2,0.667"/>
      <path id="svg_174" fill-rule="evenodd" clip-rule="evenodd" fill="none" stroke="#000000" stroke-width="3.8914" stroke-linecap="round" d="m255.932007,102.946999c3.373993,-4.938995 8.222015,-9.059998 13.286011,-12.189995"/>
      <path id="svg_175" fill-rule="evenodd" clip-rule="evenodd" fill="none" stroke="#000000" stroke-width="3.1972" stroke-linecap="round" d="m267.21701,69.424004c-3.276001,-3.496002 -6.84201,-7.507004 -8.333008,-12.333004"/>
      <path id="svg_176" fill-rule="evenodd" clip-rule="evenodd" fill="none" stroke="#000000" stroke-width="3.0984" stroke-linecap="round" d="m451.21701,199.423996c1.333008,-0.248001 2.666992,-0.343994 4,-0.666992"/>
      <path id="svg_177" fill-rule="evenodd" clip-rule="evenodd" fill="none" stroke="#000000" stroke-width="3.1623" stroke-linecap="round" d="m501.21701,160.757004c-0.666992,0.222992 -1.333008,0.444 -2,0.666992"/>
      <path id="svg_178" fill-rule="evenodd" clip-rule="evenodd" fill="none" stroke="#000000" stroke-width="3.1623" stroke-linecap="round" d="m471.549988,153.089996c-0.221985,0.667007 -0.444,1.333008 -0.665985,2"/>
      <path id="svg_179" fill-rule="evenodd" clip-rule="evenodd" fill="none" stroke="#000000" stroke-width="3.0551" stroke-linecap="round" d="m537.883972,154.089996c0.531982,-1.039001 1.491028,-1.695999 2.333008,-2.332993"/>
      <path id="svg_180" fill-rule="evenodd" clip-rule="evenodd" fill="none" stroke="#000000" stroke-width="3.1833" stroke-linecap="round" d="m401.71701,184.589996c-1.94101,-1.819992 -4.57901,-3.140991 -5.911011,-5.450989c0.341003,-0.798004 1.25,-2.447006 2.411011,-4.049011"/>
      <path id="svg_181" fill-rule="evenodd" clip-rule="evenodd" fill="none" stroke="#000000" stroke-width="3.2528" stroke-linecap="round" d="m279.21701,179.423996c5.859985,-6.264999 12.592987,-11.843994 18.333008,-18.332993"/>
      <path id="svg_182" fill-rule="evenodd" clip-rule="evenodd" fill="none" stroke="#000000" stroke-width="3.7372" stroke-linecap="round" d="m250.884003,403.089996c5.205994,7.306 9.01001,15.403992 15.533997,21.800018"/>
      <path id="svg_183" fill-rule="evenodd" clip-rule="evenodd" fill="none" stroke="#000000" stroke-width="3.1523" stroke-linecap="round" d="m391.416992,389.290985c14.147003,-19.916016 29.104004,-39.589996 47.600006,-55.399994"/>
      <path id="svg_184" fill-rule="evenodd" clip-rule="evenodd" fill="none" stroke="#000000" stroke-width="3.1145" stroke-linecap="round" d="m429.884003,228.089996c1.036011,-4.526001 6.074005,-7.815994 3.833008,-13"/>
      <path id="svg_185" fill-rule="evenodd" clip-rule="evenodd" fill="none" stroke="#000000" stroke-width="3.559" stroke-linecap="round" d="m441.21701,241.589996c5.717987,2.380997 2.148987,8.824005 2.806,13.373001c0.240997,0.80101 1.220001,1.874008 2.152985,2.733994c1.279022,0.078003 3.014008,-0.72998 4.190002,-1.203979c0.28302,-0.134003 0.567017,-0.269012 0.851013,-0.402008"/>
      <path id="svg_186" fill-rule="evenodd" clip-rule="evenodd" fill="none" stroke="#000000" stroke-width="3.4641" stroke-linecap="round" d="m416.075012,229.376007c-1.289001,-0.561005 -1.850006,-1.020004 -2.657013,-1.485992"/>
      <path id="svg_187" fill-rule="evenodd" clip-rule="evenodd" fill="none" stroke="#000000" stroke-width="3.0551" stroke-linecap="round" d="m322.21701,459.089996c-0.666992,-0.587006 -1.333008,-0.964996 -2,-1.333008"/>
      <path id="svg_188" fill-rule="evenodd" clip-rule="evenodd" fill="none" stroke="#000000" stroke-width="3.1623" stroke-linecap="round" d="m304.21701,479.756989c0.666992,0.222015 1.333008,0.444 2,0.666016"/>
      <path id="svg_189" fill-rule="evenodd" clip-rule="evenodd" fill="none" stroke="#000000" stroke-width="3.4012" stroke-linecap="round" d="m337.884003,460.089996c6.424988,-10.259003 15.493988,-18.593994 22.665985,-28"/>
      <path id="svg_190" fill-rule="evenodd" clip-rule="evenodd" fill="none" stroke="#000000" stroke-width="3.6885" stroke-linecap="round" d="m199.216995,472.756989c8.319,6.235992 14.062012,15.782013 22,22.666016"/>
      <path id="svg_191" fill-rule="evenodd" clip-rule="evenodd" fill="none" stroke="#000000" stroke-width="3.1358" stroke-linecap="round" d="m285.21701,485.423004c1.729004,-1.167999 3.433014,-2.429993 4.25,-2.833008"/>
      <path id="svg_192" fill-rule="evenodd" clip-rule="evenodd" fill="none" stroke="#000000" stroke-width="3.2863" stroke-linecap="round" d="m289.96701,482.589996c1.201996,-0.928009 2.602997,-1.984009 4.25,-2.833008"/>
      <path id="svg_193" fill-rule="evenodd" clip-rule="evenodd" fill="none" stroke="#000000" stroke-width="3.1623" stroke-linecap="round" d="m248.216995,487.756989c0.667007,0.222015 1.333008,0.444 2,0.666016"/>
      <path id="svg_194" fill-rule="evenodd" clip-rule="evenodd" fill="none" stroke="#000000" stroke-width="3.1091" stroke-linecap="round" d="m277.21701,471.423004c1,-0.213989 2,-0.406006 3,-0.666016"/>
      <path id="svg_195" fill-rule="evenodd" clip-rule="evenodd" fill="none" stroke="#000000" stroke-width="3.1623" stroke-linecap="round" d="m238.216995,467.756989c-0.666992,0.222015 -1.332993,0.444 -2,0.666016"/>
      <path id="svg_196" fill-rule="evenodd" clip-rule="evenodd" fill="none" stroke="#000000" stroke-width="3.5473" stroke-linecap="round" d="m200.216995,458.423004c-2.781998,-1.791016 -5.659988,-3.295013 -9,-3.666016"/>
     </g>
    </g>
    <path id="svg_197" fill-rule="evenodd" clip-rule="evenodd" d="m131.490997,315.033997c0,0 15.28801,0.213013 19.535004,3.186005s17.199997,14.014008 17.199997,14.014008l-1.061996,4.459991c0,0 -13.589996,-9.769012 -18.262009,-12.31601s-18.048996,-3.608978 -18.048996,-3.608978l0.638,-5.735016z"/>
   </g>
  </symbol>
  <symbol id="svg_216">
   <metadata id="svg_215">image/svg+xmlplate fork knife spoon icon symbol eating food eat porcelain restaurant cuisine burp menuA symbol representing a plate, a fork, a knife and a spoonLumen Design Studio</metadata>
   <g id="svg_205">
    <g fill-rule="evenodd" id="svg_206">
     <path fill="white" id="svg_214" d="m88.993103,14.9563l0,0.0073l-0.000999,0l-0.002007,0l0,-0.007401c-12.276398,-0.0362 -23.412399,4.913401 -31.491196,12.944099c-8.079201,8.0308 -13.0956,19.137802 -13.1325,31.414902l0.007397,0l0,0.000999l0,0.0019l-0.007397,0c-0.036201,12.276497 4.913498,23.412399 12.944099,31.491302c8.0308,8.079094 19.137802,13.095596 31.414902,13.132599l0,-0.008003l0.000999,0l0.001999,0l-0.000099,0.008003c12.276695,0.035995 23.411697,-4.913498 31.4907,-12.944199c8.079002,-8.030899 13.096001,-19.137703 13.131996,-31.414902l-0.007004,-0.000099l0,-0.0009l0,-0.002003l0.007004,0c0.037003,-12.276299 -4.912994,-23.412399 -12.943001,-31.491199c-8.030998,-8.0791 -19.138,-13.095699 -31.414894,-13.1324l0,0l0,0z" class="fil0"/>
     <path fill="black" fill-rule="nonzero" id="svg_213" d="m89.003616,11.16578l0.000954,0l-0.000038,0.00738c13.335335,0.040091 25.389481,5.47893 34.096451,14.23828c8.706635,8.759111 14.072968,20.84498 14.033646,34.17948l0.007416,0l0,0.002022l-0.000015,0.000957l-0.007401,0c-0.0401,13.335461 -5.47876,25.389751 -14.238106,34.096775c-8.75898,8.706795 -20.844856,14.073059 -34.179176,14.033798l0,0.00737l-0.002037,0l-0.000916,0l0,-0.007416c-13.335472,-0.0401 -25.389763,-5.478867 -34.096783,-14.238266c-8.706902,-8.759193 -14.073071,-20.844933 -14.033802,-34.179482l-0.007378,-0.000038l0,-0.002022l0,-0.000927l0.00742,0.000019c0.0401,-13.335472 5.478889,-25.389751 14.238251,-34.096781c8.75922,-8.70694 20.844952,-14.07308 34.179501,-14.0338l0.000038,-0.00737l0.002007,0l-0.000031,0.00002zm-0.010384,3.79035l-0.000046,0.0074l-0.000908,0l-0.002052,0l0.000031,-0.00742c-12.276436,-0.03625 -23.412346,4.913429 -31.491207,12.944019c-8.079102,8.030882 -13.095638,19.137861 -13.132431,31.414942l0.007412,0.000038l0,0.000919l-0.000042,0.00206l-0.00737,-0.00005c-0.036247,12.276459 4.91341,23.412361 12.944,31.491211c8.030872,8.079117 19.137844,13.095657 31.414944,13.132454l0.000031,-0.007416l0.000954,0l0.002007,0.000015l-0.000031,0.007401c12.276176,0.036247 23.41198,-4.913261 31.490799,-12.944c8.07914,-8.030884 13.095512,-19.137711 13.132301,-31.414944l-0.007385,-0.000038l0,-0.000961l0,-0.001991l0.007431,0.000019c0.03624,-12.27631 -4.913406,-23.412399 -12.943909,-31.491228c-8.030731,-8.079121 -19.137527,-13.09562 -31.414528,-13.13243l0,0z" class="fil1"/>
     <path fill="white" id="svg_212" d="m88.948143,29.993839l-0.000046,0.00378l-0.000916,0l-0.002052,0l0.000038,-0.00378c-8.128288,-0.02389 -15.50045,3.252632 -20.847908,8.568439c-5.34803,5.316132 -8.66843,12.66927 -8.692799,20.797691l0.003731,0l0,0.00095l0,0.00198l-0.003731,0.000042c-0.023891,8.127705 3.252357,15.499882 8.567753,20.84763c5.315857,5.348007 12.669006,8.6689 20.798065,8.693306l0,-0.003731l0.000954,0l0.002007,0l0,0.003731c8.127983,0.023895 15.500023,-3.252625 20.847511,-8.568428c5.348022,-5.316139 8.668503,-12.669228 8.69294,-20.797668l-0.003777,-0.000019l0.000023,-0.000912l0,-0.00206l0.003754,0.000038c0.023888,-8.127708 -3.252357,-15.499866 -8.567879,-20.84763c-5.31591,-5.348007 -12.669022,-8.668949 -20.797668,-8.693359l0,0z" class="fil0"/>
     <path fill="black" fill-rule="nonzero" id="svg_211" d="m88.952904,28.0986l0.000893,0l0,0.003799c8.657707,0.0261 16.484207,3.558201 22.138206,9.246401c5.653999,5.687798 9.139,13.535 9.112999,22.1917l0.003998,0l0,0.001999l0,0.0009l-0.003998,0c-0.026001,8.657398 -3.557999,16.484303 -9.246002,22.1385c-5.686996,5.6539 -13.534302,9.138802 -22.191299,9.113503l0,0.003799l-0.002098,0l-0.0009,0l0,-0.003799c-8.658005,-0.026199 -16.484901,-3.558304 -22.138901,-9.246399c-5.6535,-5.687904 -9.1381,-13.535004 -9.112801,-22.191704l-0.0037,0l0,-0.001999l0,-0.000999l0.0037,0c0.026199,-8.657402 3.5578,-16.4842 9.245903,-22.1385c5.687599,-5.653902 13.534698,-9.138802 22.191994,-9.113401l0,-0.003799l0.002007,0l0,0zm-0.004707,1.895199l0,0.003801l-0.000999,0l-0.001999,0l0,-0.003801c-8.128197,-0.0238 -15.500397,3.252699 -20.8479,8.568502c-5.348,5.316097 -8.668396,12.669197 -8.692799,20.797699l0.003799,0l0,0.0009l0,0.001999l-0.003799,0c-0.023899,8.127701 3.252399,15.499901 8.567699,20.847702c5.315903,5.348 12.669098,8.6689 20.798203,8.693298l0,-0.003799l0.0009,0l0.001999,0l0,0.003799c8.127998,0.023903 15.499702,-3.252602 20.847702,-8.568398c5.348,-5.3162 8.667999,-12.669304 8.693001,-20.797703l-0.004005,0l0,-0.000999l0,-0.001999l0.004005,0c0.023994,-8.127701 -3.253006,-15.499802 -8.568001,-20.847603c-5.316002,-5.348 -12.669106,-8.6689 -20.797806,-8.693298l0,0l0,-0.000101z" class="fil1"/>
     <path fill="black" id="svg_210" d="m90.022362,97.721443c14.310501,-1.822906 30.430779,-10.042656 38.623833,-24.957413c-4.735733,11.582008 -14.181961,26.284081 -38.636078,29.031708c0.004082,-1.35817 -1.334969,-3.902679 0.012184,-4.074295l0.000061,0z" class="fil2"/>
     <path fill="black" id="svg_209" d="m31.00984,38.51965l-0.17374,57.338551c-0.00252,0.891937 -1.56073,1.614616 -3.46628,1.609818l0,0c-1.9041,-0.005775 -3.46047,-0.740425 -3.456579,-1.62854l0.1705,-57.338879c-3.24789,-1.549549 -5.52557,-5.199528 -5.51219,-9.44776c0.01174,-3.98687 2.03573,-7.434319 4.97613,-9.106949l-0.036381,12.633581l2.001041,0.005978l0.041319,-13.460178c0.284721,-0.073931 0.57551,-0.13356 0.87035,-0.17692l-0.04047,13.640261l1.9995,0.00621l0.040361,-13.684322c0.235899,0.02454 0.467709,0.05932 0.697779,0.103981l-0.0417,13.58279l2.00106,0.005939l0.03866,-12.917471c3.21871,1.563431 5.469851,5.196501 5.458632,9.421171c-0.013481,4.247471 -2.31118,7.881779 -5.567991,9.41272l0,0.000019z" class="fil2"/>
     <path fill="black" id="svg_208" d="m146.588593,53.036819l-0.128937,43.167877c-0.00264,0.890457 1.553284,1.623627 3.45784,1.629295l0,0c1.904541,0.005692 3.463501,-0.718193 3.467514,-1.608589c0.109497,-24.613411 -0.10611,-49.258621 0.220596,-73.867353c0.348343,-0.6915 -6.591476,4.135551 -8.341446,10.363192c-1.049744,7.697147 0.561508,16.351738 1.324432,20.315559l0,0.000019z" class="fil2"/>
     <path fill="black" id="svg_207" d="m173.617401,38.932201l-0.171265,57.337872c-0.002701,0.890404 -1.563004,1.614235 -3.467514,1.608543l0,0c-1.904556,-0.005669 -3.46051,-0.738823 -3.45784,-1.62925l0.171265,-57.337856c-3.248398,-1.549511 -5.524826,-5.199322 -5.512085,-9.44768c0.0168,-5.64048 4.062149,-10.202751 9.033417,-10.187891c4.971298,0.01483 8.989273,4.601181 8.972458,10.241699c-0.012726,4.248322 -2.310867,7.88446 -5.568436,9.414562z" class="fil2"/>
    </g>
   </g>
  </symbol>
  <symbol id="svg_225" xmlns:xlink="http://www.w3.org/1999/xlink">
   <g id="svg_219">
    <path fill="#661414" fill-rule="evenodd" stroke="#000000" stroke-width="1.0000000pt" id="svg_224" d="m18.714359,249.083847c521.864986,0.232483 -0.71052,-0.009308 521.843014,0c0.169617,0 0,0 -43.906799,20.153946c-50.349121,23.111023 -45.231567,170.476624 -228.171356,169.868866c-182.223846,-0.605377 -163.510818,-146.116028 -205.858078,-167.709503c-43.210699,-22.033829 -44.91626,-22.313766 -43.90678,-22.313309z"/>
    <g id="svg_220">
     <path fill="#000000" fill-opacity="0.502513" fill-rule="evenodd" stroke-width="1.0000000pt" id="svg_223" d="m249.764832,238.287094l54.703552,0c29.251526,0 71.087463,-41.990906 57.582672,-66.220093c-28.551392,-51.224579 -123.821472,-31.864212 -148.995148,-69.099205c-19.927826,-29.475685 29.843536,-57.147198 56.862885,-64.060726c31.80365,-8.137711 60.461792,12.511421 60.461792,29.511127c0,15.595299 -43.912811,18.35022 -38.868286,25.192429c5.286255,7.170097 63.983032,-4.437469 64.06073,-25.912216c0.140869,-39.663191 -43.054138,-60.38037 -92.852081,-46.785919c-42.402161,11.575459 -100.757996,48.331985 -89.972931,87.093796c13.092407,47.054428 98.730286,38.748337 118.764282,79.89595c11.041779,22.67865 -63.558472,50.384857 -41.747467,50.384857z"/>
     <path fill="#000000" fill-opacity="0.502513" fill-rule="evenodd" stroke-width="1.0000000pt" id="svg_222" d="m415.923462,240.371017l18.634155,0c9.964172,0 24.215149,-23.436859 19.614868,-36.960144c-9.725708,-28.590546 -42.178375,-17.784729 -50.75351,-38.567078c-6.788177,-16.451599 10.165863,-31.89621 19.36969,-35.754929c10.833588,-4.541985 20.595673,6.983139 20.595673,16.471359c0,8.704391 -14.958435,10.242004 -13.240112,14.060913c1.80072,4.001923 21.795166,-2.476715 21.821594,-14.462646c0.047974,-22.13765 -14.665894,-33.700745 -31.628998,-26.113136c-14.443817,6.460732 -34.322083,26.976051 -30.648285,48.610603c4.459778,26.263 33.631378,21.627045 40.455688,44.593201c3.761292,12.657867 -21.650452,28.121857 -14.220764,28.121857z"/>
     <path fill="#000000" fill-opacity="0.502513" fill-rule="evenodd" stroke-width="1.0000000pt" id="svg_221" d="m119.012802,240.371017l18.63414,0c9.964218,0 24.215149,-23.436829 19.614899,-36.960144c-9.725708,-28.590546 -42.178391,-17.784698 -50.753517,-38.567078c-6.7882,-16.451599 10.165855,-31.896194 19.369698,-35.754913c10.833557,-4.541992 20.595642,6.983124 20.595642,16.471359c0,8.704376 -14.95842,10.24202 -13.240067,14.060928c1.800705,4.001923 21.795105,-2.476746 21.821564,-14.462662c0.047989,-22.137665 -14.665909,-33.70076 -31.628998,-26.113152c-14.443832,6.460747 -34.322105,26.976067 -30.64827,48.610603c4.459778,26.263 33.631348,21.627045 40.455704,44.593231c3.761261,12.657867 -21.650467,28.121826 -14.220795,28.121826z"/>
    </g>
   </g>
  </symbol>
 </defs>
 <g>
  <title>yyyy</title>
  <g id="layer1">
   <path d="m511.681458,439.797943c32.268799,-3.064941 90.22345,-11.006561 92.50415,-12.675323c4.665405,-3.41333 -3.853821,-5.553131 -25.812073,-6.481506l-22.500549,-0.951965l14.019958,-9.022675c7.710388,-4.962677 13.989441,-10.872009 13.953064,-13.132111c-0.036926,-2.294678 4.068726,-4.184113 9.297241,-4.278748c5.149841,-0.09259 16.169556,-1.621307 24.488281,-3.396423c17.894714,-3.818573 24.640381,-15.341461 13.784119,-23.544159c-5.007385,-3.783203 -6.639954,-12.02243 -7.016418,-35.419891l-0.490662,-30.490051l-23.744019,-14.957794c-21.610352,-13.613037 -23.567139,-15.846283 -21.769531,-24.840576c2.343567,-11.728729 0.054565,-17.210052 -7.138123,-17.092789c-5.473572,0.089249 -19.624939,-37.140076 -19.868347,-52.269073c-0.230408,-14.316376 -9.288086,-15.130051 -170.705292,-15.333374c-240.406418,-0.302765 -317.506348,0.880737 -327.961899,5.033493c-7.329624,2.911301 -9.245033,6.279831 -9.146633,16.086243c0.068253,6.822205 -1.215973,39.579102 -2.855133,72.79303c-1.638462,33.213959 -3.371243,68.973602 -3.849625,79.466034l-0.870056,19.076752l21.903278,3.075348c12.046631,1.69101 21.886627,2.04364 21.866371,0.782837c-0.020294,-1.26004 -8.765488,-3.074066 -19.433537,-4.029388l-19.396656,-1.73761l1.990784,-50.558838c5.068695,-128.730286 4.948055,-127.730225 15.862446,-131.443649c7.067829,-2.405472 67.502811,-3.480148 212.643284,-3.781799c111.522522,-0.232071 215.877716,-0.5952 231.900177,-0.807419c33.959045,-0.449158 39.934875,1.40564 41.576233,12.904724c0.665649,4.659958 2.478638,13.750183 4.02948,20.200439c2.807556,11.677582 2.795898,11.671494 -2.702148,-1.427658l-5.52124,-13.155426l-38.317841,-0.221619c-25.917755,-0.149857 -38.300903,0.830627 -38.265503,3.029831c0.030182,1.87529 3.44635,2.431335 8.071991,1.313797c5.576416,-1.347366 15.914398,2.010376 33.936066,11.022125c14.253326,7.127823 27.448761,12.934662 29.322601,12.904083c1.873169,-0.030533 6.382385,1.977402 10.02002,4.462051c6.012817,4.106873 6.643738,4.029709 6.942505,-0.84903c0.434204,-7.097916 7.19043,6.853302 7.323425,15.123383c0.076782,4.769089 -0.621277,4.501343 -3.680481,-1.411697c-2.999329,-5.797791 -3.290649,-5.03717 -1.418152,3.702377c1.296509,6.049744 0.794556,11.024963 -1.116577,11.056091c-1.910278,0.031158 -16.643799,-8.143219 -32.740784,-18.165298c-16.096954,-10.022156 -30.655853,-18.430542 -32.352417,-18.685455c-11.288544,-1.69519 -15.766235,-4.461105 -16.142731,-9.970505c-0.236145,-3.4655 -1.366119,-4.589249 -2.510925,-2.497345c-2.619263,4.787659 11.343842,47.757446 17.097351,52.612823c2.804535,2.367554 16.272705,3.414001 39.139313,3.041199c33.25592,-0.542206 34.877197,-0.873901 35.174255,-7.196198c0.187317,-3.97876 1.925903,-2.007294 4.350037,4.932556c2.220886,6.358185 7.30957,14.170502 11.307983,17.360687c7.20105,5.744843 7.161133,5.753967 -4.108643,0.950348c-6.258118,-2.667389 -12.490967,-4.831757 -13.850952,-4.809601c-5.525757,0.090057 3.220337,5.737579 14.976563,9.670593c6.898132,2.307892 11.444519,2.979919 10.101868,1.493439c-5.675537,-6.285858 6.930359,-2.097107 21.059265,6.997437c13.647827,8.784943 15.161438,11.194397 14.187744,22.580322c-1.032104,12.074707 -1.781982,12.772766 -14.239746,13.2547c-9.4375,0.365143 -12.559204,-0.622681 -11.057678,-3.498993c1.150208,-2.204254 5.636475,-4.065552 9.969727,-4.1362c5.628113,-0.091766 7.843201,-2.22876 7.758606,-7.485016l-0.118347,-7.35672l-76.987061,1.255219c-43.978821,0.71698 -76.968475,2.413574 -76.943634,3.957153c0.023926,1.486115 -1.059448,4.815063 -2.407532,7.397797c-1.910706,3.661072 0.398407,4.649414 10.478546,4.485046c9.489624,-0.154724 12.986694,1.158875 13.144897,4.936737c0.118561,2.831085 2.783447,7.464783 5.921967,10.296906c5.211914,4.702332 5.9245,4.272003 8.215912,-4.960815c2.984558,-12.027985 8.844055,-13.708344 50.361206,-14.441925c27.766785,-0.490631 29.896729,-0.047302 38.632629,8.041077c5.085327,4.708466 9.307983,12.444946 9.384399,17.19278c0.082947,5.157074 2.800903,9.30835 6.750488,10.311249c10.121277,2.569824 11.569519,1.982697 6.142151,-2.491241c-3.913025,-3.225983 -3.478088,-4.714722 2.04303,-7.00415c3.856873,-1.599335 5.659607,-4.406769 4.005676,-6.237671c-1.654053,-1.831573 -4.73761,-2.540131 -6.853394,-1.573853c-2.115845,0.965607 -3.86908,0.353516 -3.896667,-1.360504c-0.070496,-4.380371 12.309326,-4.102234 14.503296,0.325684c0.994568,2.007355 2.880371,8.496338 4.18988,14.420288l2.382019,10.770203l-25.909058,2.038116c-38.357971,3.017883 -74.363037,5.449066 -127.113373,8.582733c-30.574921,1.816528 -47.806244,4.057617 -49.016144,6.374786c-1.025818,1.966064 -6.217529,3.058167 -11.536499,2.427124c-6.903503,-0.819214 -11.069855,-4.303375 -14.555054,-12.173676c-10.28653,-23.228149 -30.556396,-31.771027 -60.372589,-25.443298c-12.001221,2.546387 -16.309174,5.816315 -24.580933,18.654755c-5.516296,8.561859 -11.305145,18.568054 -12.864471,22.235626c-1.559143,3.668304 -4.113312,6.678986 -5.675842,6.692261c-5.973145,0.047607 -103.464539,-7.218964 -115.434677,-8.604156c-10.118073,-1.171112 -14.136139,-4.026398 -20.558151,-14.610352c-12.15274,-20.02832 -26.257927,-30.050659 -41.857895,-29.742828c-16.70723,0.32962 -21.923203,2.848206 -27.255074,13.1604c-5.376991,10.399414 -5.398811,14.694824 -0.063324,12.259277c2.526627,-1.15387 4.21698,3.383148 4.350426,11.674896c0.387283,24.066956 16.226471,36.977814 46.397446,37.821289c12.743973,0.355774 120.031204,11.344055 182.785019,18.720825c11.960602,1.405548 25.480957,3.900543 30.045105,5.542694c4.564209,1.642914 15.300812,2.667725 23.859344,2.276672c8.55838,-0.391022 39.916382,-0.425903 69.684204,-0.076721c29.767822,0.34845 61.604431,-0.076904 70.74826,-0.945221l0,0l0,0zm-65.964966,-25.171997c-38.751709,-2.090027 -38.046814,-8.204742 1.341827,-11.648041c29.455139,-2.575195 29.643158,-2.545807 42.77417,6.688538l13.188202,9.275208l-14.591461,-1.399445c-8.02533,-0.769958 -27.246155,-2.081665 -42.712738,-2.91626zm-102.910034,3.354065c-9.833862,-3.539459 -18.213226,-20.409454 -14.949493,-30.097748c3.507172,-10.410004 16.848114,-19.993744 28.086395,-20.176971c14.752655,-0.240509 29.714874,12.590973 29.925262,25.664429c0.342651,21.293182 -19.992249,32.914368 -43.062164,24.610291zm35.338348,-9.624603c4.191345,-4.955048 0.347931,-5.569794 -5.552795,-0.888123c-2.914734,2.312531 -3.463593,4.174286 -1.219635,4.137695c2.243927,-0.036591 5.291504,-1.498718 6.77243,-3.249573zm-24.273926,1.661957c-1.66626,-1.903473 0.601776,-4.001526 5.365021,-4.962677c5.653473,-1.141418 8.211456,-4.15509 8.124298,-9.572937c-0.087158,-5.417877 -2.740845,-8.34726 -8.42807,-9.30307c-4.56546,-0.767303 -7.26709,-2.917603 -6.003632,-4.778046c1.263458,-1.85968 -1.540527,-0.192535 -6.230988,3.706268c-4.690521,3.898071 -8.55542,5.395905 -8.588654,3.328888c-0.033264,-2.067719 -1.029816,-3.050293 -2.214417,-2.183472c-1.184723,0.866791 -0.972931,3.67099 0.470428,6.231689c2.12027,3.761078 4.104889,3.972321 10.332825,1.099854c9.120819,-4.206665 14.371613,-1.684937 10.787994,5.180725c-1.471954,2.820099 -5.190216,4.218994 -8.786102,3.306152c-8.430817,-2.141235 -7.831146,2.47049 0.951874,7.320709c3.908325,2.15802 5.807037,2.439819 4.219421,0.625916zm29.802582,-15.047333c-0.254852,-3.424713 -1.252136,-4.105286 -2.542786,-1.736389c-1.167938,2.143524 -0.979279,4.679291 0.41922,5.634399c1.398621,0.955841 2.353912,-0.798645 2.123566,-3.89801zm-3.986084,-9.45694c-0.057251,-3.556885 -8.019135,-7.574402 -10.872223,-5.486328c-1.035522,0.757751 0.998444,3.006134 4.519897,4.996094c3.99231,2.256836 6.383728,2.441254 6.352325,0.490234zm-32.89978,-8.092651c5.101288,-4.751526 4.952484,-4.852875 -1.588989,-1.085327c-3.969757,2.286469 -7.209503,4.657623 -7.199707,5.268585c0.03894,2.421478 3.431244,0.807373 8.788696,-4.183258zm-48.908325,27.717896c1.367126,-1.000916 4.954712,-1.163879 7.972534,-0.362762c3.334808,0.885376 2.359955,1.598846 -2.485687,1.819122c-4.384857,0.199036 -6.853882,-0.456085 -5.486847,-1.45636zm-137.679352,-5.543335c5.126129,-5.345032 9.582581,-10.128601 9.90242,-10.63031c0.320541,-0.502472 20.641632,0.354553 45.157913,1.903534c29.878784,1.888092 45.308746,4.117737 46.799927,6.762665c1.223572,2.170837 5.304993,4.11203 9.069824,4.314392c14.652344,0.788025 -40.979706,5.140442 -79.558594,6.224884l-40.691483,1.142639l9.319992,-9.717804zm267.884369,-2.475098c-7.830139,-1.988129 -9.120331,-15.386322 -1.658173,-17.221649c2.850372,-0.700836 36.994446,-3.226318 75.875977,-5.61142c38.881622,-2.385803 83.039337,-5.328918 98.127899,-6.541321c23.340698,-1.874451 27.847778,-1.469391 30.207581,2.716583c3.303955,5.860474 -3.538757,16.388275 -10.686646,16.441406c-3.217834,0.023651 -2.804871,-1.096497 1.137451,-3.081299c4.447937,-2.239502 -1.710266,-2.748779 -21.846313,-1.806488c-19.538696,0.91452 -28.660583,0.207123 -30.085449,-2.33371c-1.144714,-2.040253 -8.054504,-3.340759 -15.693237,-2.952454l-13.647766,0.693787l13.544189,0.966095c7.92041,0.565582 13.570557,2.651245 13.608765,5.025177c0.04248,2.635406 6.270264,4.351349 17.77002,4.896057c11.966248,0.566589 7.59259,1.242554 -13.495056,2.086487c-17.158936,0.686188 -34.61377,1.762054 -38.786987,2.390747c-5.170288,0.779022 -6.885742,-0.202637 -5.383423,-3.080902c2.523926,-4.8349 -12.795166,-5.223663 -55.153839,-1.397522c-27.711548,2.502777 -33.567566,6.403992 -11.929504,7.947968c10.611938,0.757324 9.34079,1.136932 -5.875549,1.753998c-10.680023,0.432831 -22.393738,0.032166 -26.029938,-0.891541zm62.880035,-16.063629c-6.305267,-0.571716 -16.605133,-0.403809 -22.888,0.373169c-6.28363,0.776947 -1.124786,1.244171 11.463379,1.03894c12.588898,-0.205261 17.729218,-0.840363 11.424622,-1.412109zm-384.478157,12.5755c-8.885269,-6.069275 -10.434456,-9.263916 -8.623436,-17.782684c2.796745,-13.154144 9.207436,-18.803314 21.566582,-19.004852c9.408028,-0.153381 21.898933,10.015289 16.8451,13.713165c-1.314743,0.961884 -2.415192,0.204407 -2.445587,-1.683929c-0.030396,-1.888306 -2.395782,-3.350861 -5.255844,-3.250183c-3.038223,0.106476 -1.705414,2.269012 3.205963,5.201263c8.473816,5.059143 14.120453,13.951385 6.959305,10.95929c-2.12059,-0.885712 -4.897369,0.385376 -6.171158,2.825378c-4.019318,7.700043 -9.527534,4.918823 -7.834633,-3.955475c1.564911,-8.197662 -3.203224,-12.683746 -14.581352,-13.719025c-6.667435,-0.606934 -2.076332,6.892242 5.377846,8.784912c7.871162,1.999023 7.727821,7.552521 -0.197845,7.681732c-3.433533,0.055969 -6.220917,1.467773 -6.194054,3.137054c0.080032,4.973358 13.121323,6.764862 21.412094,2.941406c9.552963,-4.405396 10.051071,-1.391846 0.979721,5.935883c-8.963943,7.240906 -12.163597,7.013458 -25.042702,-1.783936zm416.295509,-138.289642c-2.783508,-3.597137 -11.640808,-12.062241 -19.68219,-18.811447c-8.041382,-6.749146 -13.873108,-12.283417 -12.959045,-12.298325c0.914001,-0.014908 13.864777,8.383545 28.778748,18.663147c22.470337,15.487579 25.558655,18.715637 18.020203,18.838531c-5.190674,0.084625 -11.269653,-2.659607 -14.157715,-6.391907zm-227.223328,117.6362c6.798309,-10.934235 5.431,-13.220917 -1.950104,-3.260834c-3.446747,4.651062 -5.479218,8.995117 -4.516693,9.652527c0.962463,0.657349 3.872589,-2.218597 6.466797,-6.391693zm161.881592,-5.841064c-9.904236,-1.896698 -9.435883,-6.646942 0.490479,-4.978333c4.331818,0.728577 9.286865,-0.343079 11.011017,-2.381104c2.020599,-2.388702 1.439178,-2.931976 -1.6362,-1.52774c-8.799622,4.016937 -15.089874,-1.495087 -6.796417,-5.955627c5.917664,-3.182281 6.49762,-4.871582 2.590668,-7.539825c-7.931122,-5.417542 -5.953522,-8.656647 3.259705,-5.340546c6.683533,2.405365 8.358978,2.10202 8.300934,-1.503845c-0.044281,-2.752167 -3.812592,-4.456238 -9.643921,-4.361176c-5.264496,0.085846 -11.468597,-1.139679 -13.78653,-2.723236c-2.814606,-1.922485 -4.038483,3.708191 -3.682281,16.944611c0.474426,17.602753 1.46756,19.87674 8.866516,20.295135c6.476654,0.366455 6.704559,0.159515 1.026031,-0.928314zm107.0979,-5.441589c11.913879,-2.022522 12.408569,-2.73465 11.412231,-16.424408c-1.536072,-21.108337 -3.569519,-23.293427 -19.34314,-20.784363c-7.395447,1.176361 -23.276367,2.353821 -35.291565,2.616486l-21.84613,0.477722l0.303955,18.886719l0.303864,18.887573l26.003937,-0.772034c14.301453,-0.424866 31.607422,-1.723846 38.456848,-2.887695zm-256.82666,-9.518799c6.79837,-10.934937 5.431,-13.221649 -1.950012,-3.261536c-3.446747,4.651031 -5.479248,8.995087 -4.516663,9.652466c0.962463,0.65741 3.872559,-2.218597 6.466675,-6.39093l0,0zm106.677094,-8.972351c3.330963,-3.937897 -1.733032,-9.367126 -6.646271,-7.124054c-5.018494,2.29129 -4.858124,10.255493 0.205902,10.172913c2.153748,-0.035126 5.052063,-1.406921 6.440369,-3.048859zm-169.338577,-6.069183c-0.065094,-4.046173 -1.036316,-5.686035 -2.158234,-3.644073c-1.121826,2.04187 -1.068558,5.352631 0.118378,7.356873c1.187088,2.004242 2.10498,0.333221 2.039856,-3.712799l0,0zm0.064148,-16.435211c-0.254852,-3.424835 -1.252106,-4.106049 -2.542801,-1.736908c-1.16803,2.143799 -0.979294,4.679504 0.419296,5.634766c1.398529,0.955261 2.35408,-0.798767 2.123505,-3.897858l0,0l0,0zm-22.576675,-0.707642c-10.285538,-3.124817 -168.903942,-13.017334 -172.030899,-10.728973c-1.236931,0.905273 -0.226765,1.612915 2.245476,1.572601c5.052574,-0.082397 140.970039,8.642151 163.563194,10.499023c10.987244,0.903046 12.523361,0.571625 6.222229,-1.342651zm22.292572,-16.948364c-0.254868,-3.424774 -1.252136,-4.105957 -2.542816,-1.736816c-1.168015,2.143768 -0.979309,4.679413 0.419296,5.634735c1.398544,0.955292 2.35408,-0.798798 2.12352,-3.897919l0,0l0,0zm80.495453,-19.218231c5.157562,-3.774048 2.54129,-15.107422 -3.862854,-16.733643c-5.08371,-1.290924 -6.161041,0.472473 -5.254639,8.601074c1.113861,9.989136 3.577454,12.186584 9.117493,8.132568l0,0zm122.118866,-11.037384c-13.253204,-0.369812 -33.852936,-0.028534 -45.775909,0.758362c-11.923004,0.786957 -1.079285,1.089569 24.097656,0.672394c25.176971,-0.417084 34.932251,-1.060944 21.678253,-1.430756zm-82.259399,-12.495667c-0.141724,-8.80603 -1.882751,-16.689926 -3.868927,-17.51973c-1.986176,-0.829803 -3.323364,3.374435 -2.971558,9.342728c0.496185,8.416077 -1.112244,11.132141 -7.166595,12.102325c-4.293396,0.688049 -9.43512,-0.508484 -11.426025,-2.658936c-2.436096,-2.631165 -3.590393,-0.781799 -3.529755,5.654816c0.084625,8.977692 0.984131,9.55014 14.655365,9.32724l14.565155,-0.237457l-0.25766,-16.010986zm102.255005,1.712708c1.101563,-2.110657 0.023376,-9.046936 -2.395844,-15.41394c-4.342194,-11.427353 -4.378265,-11.444077 -2.773102,-1.300812c2.344055,14.816467 -0.253418,17.664734 -16.34671,17.927124c-10.032867,0.163574 -15.051727,-1.304077 -16.68573,-4.878998c-6.391571,-13.984741 -15.604767,-24.635666 -35.357971,-40.875565c-19.046051,-15.658981 -20.561462,-17.817245 -12.600311,-17.947052c4.977448,-0.081146 17.115356,4.925049 26.973633,11.124832c9.858124,6.199875 25.915955,14.009384 35.68454,17.354507l17.759766,6.082047l-2.830811,-9.427689c-1.557587,-5.185257 -2.869965,-11.81604 -2.916931,-14.735046c-0.182434,-11.337769 -11.340027,-14.374649 -50.468842,-13.736725l-37.156128,0.605789l0.438782,11.030731c0.241241,6.06694 2.821594,20.914185 5.7341,32.993927c5.057587,20.976807 5.857391,22.038635 17.810089,23.644684c24.088806,3.236786 72.995789,1.643372 75.13147,-2.447815zm-154.109253,-5.733612c1.710663,-2.0224 1.341339,-2.83786 -0.835236,-1.844116c-2.146088,0.979706 -9.243591,-3.998077 -15.772339,-11.06189c-15.702545,-16.989456 -18.772797,-16.46521 -4.075439,0.695923c6.437897,7.517029 9.147675,12.954407 6.127045,12.294189c-7.082642,-1.548065 -44.55658,-48.881317 -38.774109,-48.975601c2.436523,-0.039734 4.406311,-1.558533 4.377075,-3.375183c-0.038269,-2.377075 -1.681183,-2.311661 -5.860626,0.233276c-4.2836,2.608322 -5.525833,10.25325 -4.734344,29.136017l1.073151,25.599899l27.704041,0.461548c18.484039,0.307922 28.724579,-0.745056 30.770782,-3.164063zm23.888031,-5.263062c1.812286,-3.671997 5.977814,-6.720139 9.256866,-6.773605c7.545654,-0.123032 7.568573,0.030182 -2.645294,-17.617508c-11.623199,-20.082489 -10.580322,-24.84993 1.93866,-8.861923c11.471161,14.649963 12.68399,12.800476 5.757599,-8.779266c-5.471863,-17.048386 -14.938599,-19.602234 -18.51355,-4.994049c-3.54187,14.472778 0.111359,55.322464 4.205719,47.026352zm-19.600739,-26.907181l-1.239746,-22.055542l-23.942688,-0.492371c-13.168518,-0.270874 -23.924835,0.616577 -23.903015,1.972031c0.02182,1.355499 9.684113,8.880188 21.47171,16.721588c11.787628,7.841385 23.101868,16.878983 25.142731,20.08345c2.447693,3.84314 3.288788,-1.681061 2.471008,-16.229156zm-69.810318,5.308044c-0.254883,-3.42482 -1.252151,-4.106018 -2.542816,-1.736877c-1.167938,2.143814 -0.979309,4.679428 0.419281,5.634766c1.398529,0.955261 2.354095,-0.798813 2.123535,-3.897888zm294.888229,-39.490173c-0.963684,-0.577301 -42.024841,-1.098801 -91.248322,-1.158157c-51.599823,-0.063141 -80.6698,0.758148 -68.651001,1.939346c20.348785,1.999542 163.372955,1.30072 159.899323,-0.781189zm-300.692032,-2.109161c-36.199463,0.099426 -94.251648,1.047318 -129.005608,2.105423c-34.753281,1.058105 -5.135567,0.976624 65.817574,-0.180893c70.952713,-1.158218 99.387543,-2.023956 63.188034,-1.92453l0,0z" id="path1309" fill="#bf0000"/>
  </g>
  <path id="svg_201" d="m56.421803,207.402008c0,13.518997 -1.901043,116.598999 -1.425762,115.753967c0.475285,-0.844971 190.578362,12.673035 191.053276,11.828003c0.475845,-0.843933 0.475845,-122.511978 0.95076,-121.666977c0.474915,0.845001 -190.578274,-19.432999 -190.578274,-5.914993l0,0z" stroke-linecap="null" stroke-linejoin="null" stroke-dasharray="null" stroke-width="5" stroke="#bf0000" fill="#ffffff"/>
  <path id="svg_199" d="m69.877655,189.888641l-51.877659,29.686676c0,2.668472 219.906193,2.3349 213.478855,5.003372c-6.427307,2.668472 38.563965,-29.353119 44.532166,-33.689377c5.968231,-4.336258 -206.133362,-1.000671 -206.133362,-1.000671z" stroke-linecap="null" stroke-linejoin="null" stroke-dasharray="null" stroke-width="5" stroke="#bf0000" fill="#bf0000"/>
  <path id="svg_203" d="m136.180267,177.062119c0,0 -42.688477,-33.604828 -42.180298,-33.044785c0.508209,0.560089 146.868713,-0.560043 146.360504,0c-0.508179,0.560089 40.147522,33.044785 39.639313,33.604813c-0.508179,0.560104 -126.540833,2.80043 -127.049042,3.360519c-0.508179,0.560043 62.508148,-0.560089 61.999969,0c-0.508209,0.560043 22.868774,-2.800415 22.360596,-2.240341c-0.508209,0.560104 -101.131042,-1.680206 -101.131042,-1.680206z" stroke-linecap="null" stroke-linejoin="null" stroke-dasharray="null" stroke-width="5" stroke="#bf0000" fill="#ffffff"/>
  <path id="svg_202" d="m238.552002,175.511993c0,0 -39.016998,-38.107986 -38.552002,-37.472992c0.464005,0.634995 134.234985,-0.634995 133.770996,0c-0.464996,0.634995 36.694,37.472992 36.229004,38.108994c-0.463989,0.63501 -115.656006,3.175003 -116.119995,3.809998c0.463989,-1.317993 57.130981,-0.634995 56.666992,0c-0.464996,0.63501 20.901001,-3.174988 20.437012,-2.539993c-0.464996,0.634995 -92.432007,-1.906006 -92.432007,-1.906006z" stroke-linecap="null" stroke-linejoin="null" stroke-dasharray="null" stroke-width="5" stroke="#bf0000" fill="#ffffff"/>
  <text fill="#000000" stroke="#000000" stroke-width="0" stroke-dasharray="null" stroke-linejoin="null" stroke-linecap="null" opacity="0.5" x="129" y="296" id="svg_200" font-size="24" font-family="serif" text-anchor="middle" xml:space="preserve"/>
  <path fill="#ffffff" stroke="#bf0000" stroke-width="5" stroke-dasharray="null" stroke-linejoin="null" stroke-linecap="null" d="m298,135l143.458008,0l40.541992,39.740005l-147.093994,1.810989l-36.906006,-41.550995z" id="svg_198"/>
  <text fill="#000000" stroke="#000000" stroke-width="0" stroke-dasharray="null" stroke-linejoin="null" stroke-linecap="null" opacity="0.5" x="-57" y="10" id="svg_229" font-size="24" font-family="serif" text-anchor="middle" xml:space="preserve"/>
  <text fill="#000000" stroke-width="0" stroke-dasharray="null" stroke-linejoin="null" stroke-linecap="null" opacity="0.5" x="-62" y="123" id="svg_230" font-size="24" font-family="serif" text-anchor="middle" xml:space="preserve"/>
  <text fill="#000000" stroke-width="0" stroke-dasharray="null" stroke-linejoin="null" stroke-linecap="null" opacity="0.5" x="-133" y="40" id="svg_231" font-size="24" font-family="serif" text-anchor="middle" xml:space="preserve"/>
  <text fill="#000000" stroke-width="0" stroke-dasharray="null" stroke-linejoin="null" stroke-linecap="null" opacity="0.5" x="-56" y="102" id="svg_232" font-size="24" font-family="serif" text-anchor="middle" xml:space="preserve"/>
  <text fill="#000000" stroke-width="0" stroke-dasharray="null" stroke-linejoin="null" stroke-linecap="null" opacity="0.5" x="161" y="66" id="svg_233" font-size="24" font-family="Sans-serif" text-anchor="middle" xml:space="preserve" transform="matrix(12.090909004211426,0,0,1.5925925970077515,-1724.6363501548767,-42.666666984558105) "/>
  <text fill="#000000" stroke-width="0" stroke-dasharray="null" stroke-linejoin="null" stroke-linecap="null" opacity="0.5" x="292" y="76" id="svg_234" font-size="24" font-family="Sans-serif" text-anchor="middle" xml:space="preserve" transform="matrix(13.230769157409666,0,0,1.434343591844197,-3650.884593486786,-21.252531636363358) "/>
  <text fill="#000000" stroke-width="0" stroke-dasharray="null" stroke-linejoin="null" stroke-linecap="null" opacity="0.5" x="204" y="60" id="svg_235" font-size="26" font-family="Fantasy" text-anchor="middle" xml:space="preserve" transform="matrix(18.153846740722656,0,0,1.7777777910232544,-3387.8847312927246,-30.33333384990692) " font-weight="bold"/>
  <text fill="#000000" stroke-width="0" stroke-dasharray="null" stroke-linejoin="null" stroke-linecap="null" opacity="0.5" x="159" y="52" id="svg_236" font-size="24" font-family="Sans-serif" text-anchor="middle" xml:space="preserve"/>
  <text fill="#000000" stroke="#000000" stroke-width="0" stroke-dasharray="null" stroke-linejoin="null" stroke-linecap="null" opacity="0.5" x="113" y="266" id="svg_237" font-size="24" font-family="Sans-serif" text-anchor="middle" xml:space="preserve"/>
  <text fill="#000000" stroke="#000000" stroke-width="0" stroke-dasharray="null" stroke-linejoin="null" stroke-linecap="null" opacity="0.5" x="-299" y="83" id="svg_238" font-size="24" font-family="Sans-serif" text-anchor="middle" xml:space="preserve"/>
  <text fill="#000000" stroke="#000000" stroke-width="0" stroke-dasharray="null" stroke-linejoin="null" stroke-linecap="null" opacity="0.5" x="75" y="35" id="svg_239" font-size="24" font-family="Sans-serif" text-anchor="middle" xml:space="preserve"/>
  <text fill="#000000" stroke="#000000" stroke-width="0" stroke-dasharray="null" stroke-linejoin="null" stroke-linecap="null" opacity="0.5" x="63" y="53" id="svg_240" font-size="24" font-family="Sans-serif" text-anchor="middle" xml:space="preserve"/>
  <text fill="#000000" stroke="#000000" stroke-width="0" stroke-dasharray="null" stroke-linejoin="null" stroke-linecap="null" opacity="0.5" x="115" y="54" id="svg_241" font-size="26" font-family="Fantasy" text-anchor="middle" xml:space="preserve"/>
  <text fill="#000000" stroke="#bf0000" stroke-width="0" stroke-dasharray="null" stroke-linejoin="null" stroke-linecap="null" opacity="0.5" x="225" y="308" id="svg_242" font-size="26" font-family="Fantasy" text-anchor="middle" xml:space="preserve"/>
  <text fill="#000000" stroke="#bf0000" stroke-width="0" stroke-dasharray="null" stroke-linejoin="null" stroke-linecap="null" opacity="0.5" x="97" y="263" id="svg_243" font-size="26" font-family="Fantasy" text-anchor="middle" xml:space="preserve"/>
  <text fill="#000000" stroke="#bf0000" stroke-width="0" stroke-dasharray="null" stroke-linejoin="null" stroke-linecap="null" opacity="0.5" x="-200" y="148" id="svg_244" font-size="26" font-family="Fantasy" text-anchor="middle" xml:space="preserve"/>
  <text fill="#000000" stroke="#bf0000" stroke-width="0" stroke-dasharray="null" stroke-linejoin="null" stroke-linecap="null" opacity="0.5" x="-212" y="98" id="svg_245" font-size="26" font-family="Fantasy" text-anchor="middle" xml:space="preserve"/>
  <text fill="#000000" stroke="#bf0000" stroke-width="0" stroke-dasharray="null" stroke-linejoin="null" stroke-linecap="null" opacity="0.5" x="-117" y="173" id="svg_246" font-size="26" font-family="Fantasy" text-anchor="middle" xml:space="preserve"/>
  <text fill="#000000" stroke="#bf0000" stroke-width="0" stroke-dasharray="null" stroke-linejoin="null" stroke-linecap="null" opacity="0.5" x="-249" y="145" id="svg_247" font-size="26" font-family="Fantasy" text-anchor="middle" xml:space="preserve"/>
  <text fill="#000000" stroke="#bf0000" stroke-width="0" stroke-dasharray="null" stroke-linejoin="null" stroke-linecap="null" opacity="0.5" x="-153" y="179" id="svg_248" font-size="26" font-family="Fantasy" text-anchor="middle" xml:space="preserve"/>
  <text fill="#000000" stroke="#bf0000" stroke-width="0" stroke-dasharray="null" stroke-linejoin="null" stroke-linecap="null" opacity="0.5" x="-247" y="181" id="svg_249" font-size="26" font-family="Fantasy" text-anchor="middle" xml:space="preserve"/>
  <text fill="#000000" stroke="#bf0000" stroke-width="0" stroke-dasharray="null" stroke-linejoin="null" stroke-linecap="null" opacity="0.5" x="-172" y="196" id="svg_250" font-size="26" font-family="Fantasy" text-anchor="middle" xml:space="preserve"/>
  <text fill="#000000" stroke="#bf0000" stroke-width="0" stroke-dasharray="null" stroke-linejoin="null" stroke-linecap="null" opacity="0.5" x="-174" y="210" id="svg_251" font-size="26" font-family="Fantasy" text-anchor="middle" xml:space="preserve"/>
  <text fill="#000000" stroke="#bf0000" stroke-width="0" stroke-dasharray="null" stroke-linejoin="null" stroke-linecap="null" x="-137" y="184" id="svg_252" font-size="26" font-family="Fantasy" text-anchor="middle" xml:space="preserve"/>
  <rect fill="#000000" stroke="#bf0000" stroke-width="5" stroke-dasharray="null" stroke-linejoin="null" stroke-linecap="null" x="-141" y="176" width="1" height="0" id="svg_253"/>
  <text fill="#000000" stroke="#bf0000" stroke-width="0" stroke-dasharray="null" stroke-linejoin="null" stroke-linecap="null" opacity="0.5" x="-216" y="125" id="svg_255" font-size="26" font-family="Fantasy" text-anchor="middle" xml:space="preserve"/>
  <text fill="#ffffff" stroke="#bf0000" stroke-width="0" stroke-dasharray="null" stroke-linejoin="null" stroke-linecap="null" opacity="0.5" x="-187" y="125" id="svg_256" font-size="26" font-family="Fantasy" text-anchor="middle" xml:space="preserve"/>
  <text fill="#000000" stroke="#bf0000" stroke-width="0" stroke-dasharray="null" stroke-linejoin="null" stroke-linecap="null" opacity="0.5" x="-160" y="110" id="svg_257" font-size="26" font-family="Fantasy" text-anchor="middle" xml:space="preserve"/>
  <text fill="#000000" stroke="#bf0000" stroke-width="0" stroke-dasharray="null" stroke-linejoin="null" stroke-linecap="null" opacity="0.5" x="-42" y="242" id="svg_258" font-size="26" font-family="Fantasy" text-anchor="middle" xml:space="preserve"/>
  <text fill="#000000" stroke="#bf0000" stroke-width="0" stroke-dasharray="null" stroke-linejoin="null" stroke-linecap="null" opacity="0.5" x="-173" y="256" id="svg_259" font-size="26" font-family="Fantasy" text-anchor="middle" xml:space="preserve"/>
 </g>
</svg>