<svg xmlns="http://www.w3.org/2000/svg" version="1.1" x="0" y="0" viewBox="0 -25 100 100" enable-background="new 0 0 50 50" xml:space="preserve">
  <path d="M18.74 60.95c-2.91 0-5.27 2.37-5.27 5.28 0 2.91 2.37 5.28 5.28 5.28s5.28-2.37 5.28-5.27C24.01 63.31 21.65 60.95 18.74 60.95zM18.74 69.18c-1.63 0-2.96-1.32-2.96-2.96 0-1.63 1.32-2.96 2.96-2.96s2.96 1.32 2.96 2.96C21.69 67.86 20.37 69.18 18.74 69.18z"/><circle cx="18.74" cy="66.22" r="0.83"/><path d="M55.53 28.36c-1.46 0-2.64 0.69-2.64 1.54h5.28C58.17 29.05 56.99 28.36 55.53 28.36zM68.06 28.36c-1.46 0-2.64 0.69-2.64 1.54H70.7C70.7 29.05 69.52 28.36 68.06 28.36zM70.28 60.95c-2.91 0-5.27 2.37-5.27 5.28 0 2.91 2.37 5.28 5.28 5.28 2.91 0 5.28-2.37 5.28-5.27C75.56 63.31 73.19 60.95 70.28 60.95zM70.28 69.18c-1.63 0-2.96-1.32-2.96-2.96 0-1.63 1.32-2.96 2.96-2.96 1.63 0 2.96 1.32 2.96 2.96C73.24 67.86 71.92 69.18 70.28 69.18z"/><circle cx="70.28" cy="66.22" r="0.83"/><path d="M18.44 32.34H92.47c-0.07-1.2-0.97-1.92-2.44-1.92H21.01c-1.77 0-2.56 1.42-2.59 1.48 -0.06 0.11-0.07 0.24-0.02 0.36C18.41 32.29 18.43 32.32 18.44 32.34zM24.47 64.11c0 0.02 0 0.05-0.01 0.07l1.98 3c0.08 0.12 0.22 0.19 0.36 0.19h11.28V37.34H24.47V64.11zM26.39 38.82h9.77c0.25 0 0.46 0.21 0.46 0.46l0 7.07H25.93l0-7.07C25.93 39.02 26.14 38.82 26.39 38.82zM25.93 48.87c0-0.24 0.19-0.43 0.43-0.43 0.24 0 0.43 0.19 0.43 0.43v1.87c0 0.24-0.19 0.43-0.43 0.43 -0.24 0-0.43-0.19-0.43-0.43V48.87zM92.86 64.04h-0.38v-1.99c0.17-0.05 0.29-0.2 0.29-0.39v-0.48c0-0.18-0.12-0.34-0.29-0.39v-6.6H38.95v13.18h24.38c0.24 0 0.43-0.19 0.43-0.43v-0.72c0-3.71 2.92-6.73 6.52-6.73 3.59 0 6.52 3.02 6.52 6.74l0.01 0.71c0 0.24 0.2 0.43 0.43 0.43h14.37v0.25c0 0.23 0.18 0.41 0.41 0.41h0.84c0.23 0 0.41-0.18 0.41-0.41v-3.17C93.27 64.22 93.09 64.04 92.86 64.04zM87.08 62.55h-9.29c-0.12 0-0.22-0.1-0.22-0.22s0.1-0.22 0.22-0.22h9.29c0.12 0 0.22 0.1 0.22 0.22S87.19 62.55 87.08 62.55zM87.08 60.97h-9.29c-0.12 0-0.22-0.1-0.22-0.22s0.1-0.22 0.22-0.22h9.29c0.12 0 0.22 0.1 0.22 0.22S87.19 60.97 87.08 60.97zM87.08 59.38h-9.29c-0.12 0-0.22-0.1-0.22-0.22 0-0.12 0.1-0.22 0.22-0.22h9.29c0.12 0 0.22 0.1 0.22 0.22C87.29 59.29 87.19 59.38 87.08 59.38z"/><circle cx="56.67" cy="42.07" r="1.94"/><rect x="55.22" y="44.81" width="2.9" height="2.41"/><path d="M58.59 47.68v3.91h1.04c0 0 0.88-1.17 1.09-1.46 0.21-0.28 0.28-0.63 0.27-0.86s-0.22-2.6-0.22-2.6c0-1.02-0.83-1.86-1.85-1.86h-0.32V47.68zM53.72 51.58h1.04V50.18v-5.37h-0.32c-1.02 0-1.85 0.83-1.85 1.86 0 0-0.21 2.38-0.22 2.61 -0.01 0.23 0.06 0.58 0.27 0.86C52.84 50.41 53.72 51.58 53.72 51.58zM71.98 46.27c-0.01-0.01-0.02-0.01-0.02-0.02 -0.34-0.37-0.82-0.61-1.37-0.61h-0.06c-1.02 0-1.65 0.85-1.85 1.86l-1.1 4.51H48.94v1.32h26.98v-1.9L71.98 46.27zM72.01 52.01c0.1-0.88 0.04-1.91 0.04-1.91l1.93 1.91H72.01z"/><circle cx="72.36" cy="43.54" r="1.94"/><path d="M92.77 35.71V35.23c0-0.18-0.12-0.34-0.29-0.39v-2.07H19.08L14.91 49.07c-0.13 0.06-0.33 0.16-0.57 0.28v-0.7c0-0.12-0.1-0.22-0.22-0.22 -0.12 0-0.22 0.1-0.22 0.22v0.92c-1.51 0.75-4.03 2-4.68 2.32 -1.31 0.66-1.48 1.73-1.48 2.6v0.46c0.02 0 0.03-0.01 0.05-0.01H8.47c0.12 0 0.22 0.1 0.22 0.22 0 0.12-0.1 0.22-0.22 0.22H7.79c-0.02 0-0.03 0-0.05-0.01v0.54c0.02 0 0.03-0.01 0.05-0.01H8.47c0.12 0 0.22 0.1 0.22 0.22s-0.1 0.22-0.22 0.22H7.79c-0.02 0-0.03 0-0.05-0.01v0.54c0.02 0 0.03-0.01 0.05-0.01H8.47c0.12 0 0.22 0.1 0.22 0.22s-0.1 0.22-0.22 0.22H7.79c-0.02 0-0.03 0-0.05-0.01v0.54c0.02 0 0.03-0.01 0.05-0.01H8.47c0.12 0 0.22 0.1 0.22 0.22s-0.1 0.22-0.22 0.22H7.79c-0.02 0-0.03 0-0.05-0.01v0.54c0.02 0 0.03-0.01 0.05-0.01H8.47c0.12 0 0.22 0.1 0.22 0.22 0 0.12-0.1 0.22-0.22 0.22H7.79c-0.02 0-0.03 0-0.05-0.01v0.54c0.02 0 0.03-0.01 0.05-0.01H8.47c0.12 0 0.22 0.1 0.22 0.22s-0.1 0.22-0.22 0.22H7.79c-0.02 0-0.03 0-0.05-0.01v0.54c0.02 0 0.03-0.01 0.05-0.01H8.47c0.12 0 0.22 0.1 0.22 0.22 0 0.12-0.1 0.22-0.22 0.22H7.79c-0.02 0-0.03 0-0.05-0.01v0.66c-0.04-0.01-0.08-0.02-0.12-0.02h-1.2c-0.23 0-0.41 0.18-0.41 0.41v3.17c0 0.23 0.18 0.41 0.41 0.41h1.2c0.23 0 0.41-0.18 0.41-0.41v-0.23h4.34c0.16 0 0.31-0.09 0.38-0.23l0.6-1.12c0.02-0.02 0.03-0.05 0.04-0.07 0.06-0.12 0.12-0.23 0.18-0.35l0.02-0.03c1.04-1.83 3.02-2.99 5.14-2.99 1.95 0 3.77 0.96 4.87 2.57V36.91c0-0.24 0.19-0.43 0.43-0.43h14.48c0.24 0 0.43 0.19 0.43 0.43v16.42h9.15V37.83H76.78v15.5h15.7v-4.26c0.17-0.05 0.29-0.2 0.29-0.39v-0.48c0-0.18-0.12-0.34-0.29-0.39v-11.72C92.64 36.05 92.77 35.89 92.77 35.71zM10.36 60.94c-0.38 0-0.7-0.76-0.7-1.7s0.31-1.7 0.7-1.7c0.38 0 0.7 0.76 0.7 1.71S10.75 60.94 10.36 60.94zM11.16 56.38c0 0.11-0.09 0.2-0.2 0.2H9.86c-0.11 0-0.2-0.09-0.2-0.19v-0.44c0-0.11 0.09-0.19 0.2-0.19h1.1c0.11 0 0.2 0.09 0.2 0.2V56.38zM22.41 46.85c0 0.49-0.4 0.89-0.89 0.89h-3.69c-0.49 0-0.89-0.4-0.89-0.89 0-0.11 0.02-0.21 0.06-0.31l2.56-10.5c0.17-0.65 0.74-1.09 1.41-1.09 0.8 0 1.45 0.65 1.45 1.45L22.41 46.85zM85.51 43.98c0.08 0 0.17-0.01 0.25-0.01 1.14 0 2.06 0.54 2.06 1.2h-2.44L85.51 43.98zM76.78 36.25H48.11l-3.61-2h36.1L76.78 36.25zM81.74 41.86c0-0.15-0.02-0.37 1.74-0.38l0.28-1.1c0.01-0.03 0.03-0.05 0.06-0.07l0.78-0.39c0.04 0 0.08 0.02 0.1 0.06 0.01 0.03 0.02 0.06 0.01 0.08s-0.03 0.05-0.06 0.07l-0.69 0.38 -0.25 0.97c1.55 0.02 1.58 0.23 1.58 0.37 0 0 0.14 0.14-1.79 0.14C81.56 42 81.74 41.86 81.74 41.86zM82.28 47.59l-0.53-5.24c0.23 0.06 0.71 0.1 1.75 0.1 1.06 0 1.55-0.04 1.78-0.1l-0.53 5.25C84.68 48.12 82.34 48.13 82.28 47.59zM87.17 47.32h-2l0.06-0.62h2.6C87.84 47.04 87.54 47.32 87.17 47.32zM87.57 46.18h-2.29l0.05-0.5h2.24c0.15 0 0.27 0.11 0.27 0.25S87.72 46.18 87.57 46.18z"/><g transform="translate(-60.000000,65.000000) scale(0.100000,-0.100000)" fill="#ce1f20" stroke="none"><path d="M1105 983c-68-15-127-39-136-55-8-14 6-46 71-158 68-116 85-140 105-140 12 0 26 7 29 16 3 9 6 82 6 164 0 176-5 189-75 173zM1270 685c-52-77-61-109-34-119 19-7 185 40 195 55 17 28-58 139-95 139-8 0-38-34-66-75zM909 623c-14-38-15-121-1-135 14-14 165 18 194 42 30 24 14 42-67 83-91 45-112 46-126 10zM1233 513c-24-9-13-46 33-120 51-83 70-90 112-45 41 44 58 80 46 99-6 9-40 27-76 39-91 31-101 33-115 27zM1072 429c-92-98-92-113 4-149 86-32 94-23 94 99 0 96-5 111-36 111-2 0-30-27-62-61z"/></g></svg>
